<?xml version="1.0" encoding="utf-8" standalone="no"?>
<!DOCTYPE svg PUBLIC "-//W3C//DTD SVG 1.1//EN"
  "http://www.w3.org/Graphics/SVG/1.1/DTD/svg11.dtd">
<!-- Created with matplotlib (https://matplotlib.org/) -->
<svg height="288pt" version="1.1" viewBox="0 0 432 288" width="432pt" xmlns="http://www.w3.org/2000/svg" xmlns:xlink="http://www.w3.org/1999/xlink">
 <metadata>
  <rdf:RDF xmlns:cc="http://creativecommons.org/ns#" xmlns:dc="http://purl.org/dc/elements/1.1/" xmlns:rdf="http://www.w3.org/1999/02/22-rdf-syntax-ns#">
   <cc:Work>
    <dc:type rdf:resource="http://purl.org/dc/dcmitype/StillImage"/>
    <dc:date>2021-05-25T22:48:16.960752</dc:date>
    <dc:format>image/svg+xml</dc:format>
    <dc:creator>
     <cc:Agent>
      <dc:title>Matplotlib v3.3.4, https://matplotlib.org/</dc:title>
     </cc:Agent>
    </dc:creator>
   </cc:Work>
  </rdf:RDF>
 </metadata>
 <defs>
  <style type="text/css">*{stroke-linecap:butt;stroke-linejoin:round;}</style>
 </defs>
 <g id="figure_1">
  <g id="patch_1">
   <path d="M 0 288 
L 432 288 
L 432 0 
L 0 0 
z
" style="fill:#f0f0f0;"/>
  </g>
  <g id="axes_1">
   <g id="patch_2">
    <path d="M 34.56 267.84 
L 410.4 267.84 
L 410.4 34.56 
L 34.56 34.56 
z
" style="fill:#f0f0f0;"/>
   </g>
   <g id="matplotlib.axis_1"/>
   <g id="matplotlib.axis_2"/>
   <g id="patch_3">
    <path clip-path="url(#pb0e75122cf)" d="M 316.44 258.97536 
C 317.685924 258.97536 318.880986 258.9262 319.761988 258.838708 
C 320.642989 258.751215 321.138 258.632533 321.138 258.5088 
C 321.138 258.385067 320.642989 258.266385 319.761988 258.178892 
C 318.880986 258.0914 317.685924 258.04224 316.44 258.04224 
C 315.194076 258.04224 313.999014 258.0914 313.118012 258.178892 
C 312.237011 258.266385 311.742 258.385067 311.742 258.5088 
C 311.742 258.632533 312.237011 258.751215 313.118012 258.838708 
C 313.999014 258.9262 315.194076 258.97536 316.44 258.97536 
z
" style="fill:#ff0000;"/>
   </g>
   <g id="patch_4">
    <path clip-path="url(#pb0e75122cf)" d="M 316.44 249.64416 
C 317.685924 249.64416 318.880986 249.595 319.761988 249.507508 
C 320.642989 249.420015 321.138 249.301333 321.138 249.1776 
C 321.138 249.053867 320.642989 248.935185 319.761988 248.847692 
C 318.880986 248.7602 317.685924 248.71104 316.44 248.71104 
C 315.194076 248.71104 313.999014 248.7602 313.118012 248.847692 
C 312.237011 248.935185 311.742 249.053867 311.742 249.1776 
C 311.742 249.301333 312.237011 249.420015 313.118012 249.507508 
C 313.999014 249.595 315.194076 249.64416 316.44 249.64416 
z
" style="fill:#ff0000;"/>
   </g>
   <g id="patch_5">
    <path clip-path="url(#pb0e75122cf)" d="M 316.44 240.31296 
C 317.685924 240.31296 318.880986 240.2638 319.761988 240.176308 
C 320.642989 240.088815 321.138 239.970133 321.138 239.8464 
C 321.138 239.722667 320.642989 239.603985 319.761988 239.516492 
C 318.880986 239.429 317.685924 239.37984 316.44 239.37984 
C 315.194076 239.37984 313.999014 239.429 313.118012 239.516492 
C 312.237011 239.603985 311.742 239.722667 311.742 239.8464 
C 311.742 239.970133 312.237011 240.088815 313.118012 240.176308 
C 313.999014 240.2638 315.194076 240.31296 316.44 240.31296 
z
" style="fill:#ff0000;"/>
   </g>
   <g id="patch_6">
    <path clip-path="url(#pb0e75122cf)" d="M 316.44 230.98176 
C 317.685924 230.98176 318.880986 230.9326 319.761988 230.845108 
C 320.642989 230.757615 321.138 230.638933 321.138 230.5152 
C 321.138 230.391467 320.642989 230.272785 319.761988 230.185292 
C 318.880986 230.0978 317.685924 230.04864 316.44 230.04864 
C 315.194076 230.04864 313.999014 230.0978 313.118012 230.185292 
C 312.237011 230.272785 311.742 230.391467 311.742 230.5152 
C 311.742 230.638933 312.237011 230.757615 313.118012 230.845108 
C 313.999014 230.9326 315.194076 230.98176 316.44 230.98176 
z
" style="fill:#ff0000;"/>
   </g>
   <g id="patch_7">
    <path clip-path="url(#pb0e75122cf)" d="M 316.44 221.65056 
C 317.685924 221.65056 318.880986 221.6014 319.761988 221.513908 
C 320.642989 221.426415 321.138 221.307733 321.138 221.184 
C 321.138 221.060267 320.642989 220.941585 319.761988 220.854092 
C 318.880986 220.7666 317.685924 220.71744 316.44 220.71744 
C 315.194076 220.71744 313.999014 220.7666 313.118012 220.854092 
C 312.237011 220.941585 311.742 221.060267 311.742 221.184 
C 311.742 221.307733 312.237011 221.426415 313.118012 221.513908 
C 313.999014 221.6014 315.194076 221.65056 316.44 221.65056 
z
" style="fill:#ff0000;"/>
   </g>
   <g id="patch_8">
    <path clip-path="url(#pb0e75122cf)" d="M 316.44 212.31936 
C 317.685924 212.31936 318.880986 212.2702 319.761988 212.182708 
C 320.642989 212.095215 321.138 211.976533 321.138 211.8528 
C 321.138 211.729067 320.642989 211.610385 319.761988 211.522892 
C 318.880986 211.4354 317.685924 211.38624 316.44 211.38624 
C 315.194076 211.38624 313.999014 211.4354 313.118012 211.522892 
C 312.237011 211.610385 311.742 211.729067 311.742 211.8528 
C 311.742 211.976533 312.237011 212.095215 313.118012 212.182708 
C 313.999014 212.2702 315.194076 212.31936 316.44 212.31936 
z
" style="fill:#ff0000;"/>
   </g>
   <g id="patch_9">
    <path clip-path="url(#pb0e75122cf)" d="M 316.44 202.98816 
C 317.685924 202.98816 318.880986 202.939 319.761988 202.851508 
C 320.642989 202.764015 321.138 202.645333 321.138 202.5216 
C 321.138 202.397867 320.642989 202.279185 319.761988 202.191692 
C 318.880986 202.1042 317.685924 202.05504 316.44 202.05504 
C 315.194076 202.05504 313.999014 202.1042 313.118012 202.191692 
C 312.237011 202.279185 311.742 202.397867 311.742 202.5216 
C 311.742 202.645333 312.237011 202.764015 313.118012 202.851508 
C 313.999014 202.939 315.194076 202.98816 316.44 202.98816 
z
" style="fill:#ff0000;"/>
   </g>
   <g id="patch_10">
    <path clip-path="url(#pb0e75122cf)" d="M 316.44 193.65696 
C 317.685924 193.65696 318.880986 193.6078 319.761988 193.520308 
C 320.642989 193.432815 321.138 193.314133 321.138 193.1904 
C 321.138 193.066667 320.642989 192.947985 319.761988 192.860492 
C 318.880986 192.773 317.685924 192.72384 316.44 192.72384 
C 315.194076 192.72384 313.999014 192.773 313.118012 192.860492 
C 312.237011 192.947985 311.742 193.066667 311.742 193.1904 
C 311.742 193.314133 312.237011 193.432815 313.118012 193.520308 
C 313.999014 193.6078 315.194076 193.65696 316.44 193.65696 
z
" style="fill:#ff0000;"/>
   </g>
   <g id="patch_11">
    <path clip-path="url(#pb0e75122cf)" d="M 316.44 184.32576 
C 317.685924 184.32576 318.880986 184.2766 319.761988 184.189108 
C 320.642989 184.101615 321.138 183.982933 321.138 183.8592 
C 321.138 183.735467 320.642989 183.616785 319.761988 183.529292 
C 318.880986 183.4418 317.685924 183.39264 316.44 183.39264 
C 315.194076 183.39264 313.999014 183.4418 313.118012 183.529292 
C 312.237011 183.616785 311.742 183.735467 311.742 183.8592 
C 311.742 183.982933 312.237011 184.101615 313.118012 184.189108 
C 313.999014 184.2766 315.194076 184.32576 316.44 184.32576 
z
" style="fill:#ff0000;"/>
   </g>
   <g id="patch_12">
    <path clip-path="url(#pb0e75122cf)" d="M 316.44 174.99456 
C 317.685924 174.99456 318.880986 174.9454 319.761988 174.857908 
C 320.642989 174.770415 321.138 174.651733 321.138 174.528 
C 321.138 174.404267 320.642989 174.285585 319.761988 174.198092 
C 318.880986 174.1106 317.685924 174.06144 316.44 174.06144 
C 315.194076 174.06144 313.999014 174.1106 313.118012 174.198092 
C 312.237011 174.285585 311.742 174.404267 311.742 174.528 
C 311.742 174.651733 312.237011 174.770415 313.118012 174.857908 
C 313.999014 174.9454 315.194076 174.99456 316.44 174.99456 
z
" style="fill:#ff0000;"/>
   </g>
   <g id="patch_13">
    <path clip-path="url(#pb0e75122cf)" d="M 316.44 165.66336 
C 317.685924 165.66336 318.880986 165.6142 319.761988 165.526708 
C 320.642989 165.439215 321.138 165.320533 321.138 165.1968 
C 321.138 165.073067 320.642989 164.954385 319.761988 164.866892 
C 318.880986 164.7794 317.685924 164.73024 316.44 164.73024 
C 315.194076 164.73024 313.999014 164.7794 313.118012 164.866892 
C 312.237011 164.954385 311.742 165.073067 311.742 165.1968 
C 311.742 165.320533 312.237011 165.439215 313.118012 165.526708 
C 313.999014 165.6142 315.194076 165.66336 316.44 165.66336 
z
" style="fill:#ff0000;"/>
   </g>
   <g id="patch_14">
    <path clip-path="url(#pb0e75122cf)" d="M 316.44 156.33216 
C 317.685924 156.33216 318.880986 156.283 319.761988 156.195508 
C 320.642989 156.108015 321.138 155.989333 321.138 155.8656 
C 321.138 155.741867 320.642989 155.623185 319.761988 155.535692 
C 318.880986 155.4482 317.685924 155.39904 316.44 155.39904 
C 315.194076 155.39904 313.999014 155.4482 313.118012 155.535692 
C 312.237011 155.623185 311.742 155.741867 311.742 155.8656 
C 311.742 155.989333 312.237011 156.108015 313.118012 156.195508 
C 313.999014 156.283 315.194076 156.33216 316.44 156.33216 
z
" style="fill:#ff0000;"/>
   </g>
   <g id="patch_15">
    <path clip-path="url(#pb0e75122cf)" d="M 316.44 147.00096 
C 317.685924 147.00096 318.880986 146.9518 319.761988 146.864308 
C 320.642989 146.776815 321.138 146.658133 321.138 146.5344 
C 321.138 146.410667 320.642989 146.291985 319.761988 146.204492 
C 318.880986 146.117 317.685924 146.06784 316.44 146.06784 
C 315.194076 146.06784 313.999014 146.117 313.118012 146.204492 
C 312.237011 146.291985 311.742 146.410667 311.742 146.5344 
C 311.742 146.658133 312.237011 146.776815 313.118012 146.864308 
C 313.999014 146.9518 315.194076 147.00096 316.44 147.00096 
z
" style="fill:#ff0000;"/>
   </g>
   <g id="patch_16">
    <path clip-path="url(#pb0e75122cf)" d="M 316.44 137.66976 
C 317.685924 137.66976 318.880986 137.6206 319.761988 137.533108 
C 320.642989 137.445615 321.138 137.326933 321.138 137.2032 
C 321.138 137.079467 320.642989 136.960785 319.761988 136.873292 
C 318.880986 136.7858 317.685924 136.73664 316.44 136.73664 
C 315.194076 136.73664 313.999014 136.7858 313.118012 136.873292 
C 312.237011 136.960785 311.742 137.079467 311.742 137.2032 
C 311.742 137.326933 312.237011 137.445615 313.118012 137.533108 
C 313.999014 137.6206 315.194076 137.66976 316.44 137.66976 
z
" style="fill:#ff0000;"/>
   </g>
   <g id="patch_17">
    <path clip-path="url(#pb0e75122cf)" d="M 316.44 128.33856 
C 317.685924 128.33856 318.880986 128.2894 319.761988 128.201908 
C 320.642989 128.114415 321.138 127.995733 321.138 127.872 
C 321.138 127.748267 320.642989 127.629585 319.761988 127.542092 
C 318.880986 127.4546 317.685924 127.40544 316.44 127.40544 
C 315.194076 127.40544 313.999014 127.4546 313.118012 127.542092 
C 312.237011 127.629585 311.742 127.748267 311.742 127.872 
C 311.742 127.995733 312.237011 128.114415 313.118012 128.201908 
C 313.999014 128.2894 315.194076 128.33856 316.44 128.33856 
z
" style="fill:#ff0000;"/>
   </g>
   <g id="patch_18">
    <path clip-path="url(#pb0e75122cf)" d="M 316.44 119.00736 
C 317.685924 119.00736 318.880986 118.9582 319.761988 118.870708 
C 320.642989 118.783215 321.138 118.664533 321.138 118.5408 
C 321.138 118.417067 320.642989 118.298385 319.761988 118.210892 
C 318.880986 118.1234 317.685924 118.07424 316.44 118.07424 
C 315.194076 118.07424 313.999014 118.1234 313.118012 118.210892 
C 312.237011 118.298385 311.742 118.417067 311.742 118.5408 
C 311.742 118.664533 312.237011 118.783215 313.118012 118.870708 
C 313.999014 118.9582 315.194076 119.00736 316.44 119.00736 
z
" style="fill:#ff0000;"/>
   </g>
   <g id="patch_19">
    <path clip-path="url(#pb0e75122cf)" d="M 316.44 109.67616 
C 317.685924 109.67616 318.880986 109.627 319.761988 109.539508 
C 320.642989 109.452015 321.138 109.333333 321.138 109.2096 
C 321.138 109.085867 320.642989 108.967185 319.761988 108.879692 
C 318.880986 108.7922 317.685924 108.74304 316.44 108.74304 
C 315.194076 108.74304 313.999014 108.7922 313.118012 108.879692 
C 312.237011 108.967185 311.742 109.085867 311.742 109.2096 
C 311.742 109.333333 312.237011 109.452015 313.118012 109.539508 
C 313.999014 109.627 315.194076 109.67616 316.44 109.67616 
z
" style="fill:#ff0000;"/>
   </g>
   <g id="patch_20">
    <path clip-path="url(#pb0e75122cf)" d="M 316.44 100.34496 
C 317.685924 100.34496 318.880986 100.2958 319.761988 100.208308 
C 320.642989 100.120815 321.138 100.002133 321.138 99.8784 
C 321.138 99.754667 320.642989 99.635985 319.761988 99.548492 
C 318.880986 99.461 317.685924 99.41184 316.44 99.41184 
C 315.194076 99.41184 313.999014 99.461 313.118012 99.548492 
C 312.237011 99.635985 311.742 99.754667 311.742 99.8784 
C 311.742 100.002133 312.237011 100.120815 313.118012 100.208308 
C 313.999014 100.2958 315.194076 100.34496 316.44 100.34496 
z
" style="fill:#ff0000;"/>
   </g>
   <g id="patch_21">
    <path clip-path="url(#pb0e75122cf)" d="M 316.44 91.01376 
C 317.685924 91.01376 318.880986 90.9646 319.761988 90.877108 
C 320.642989 90.789615 321.138 90.670933 321.138 90.5472 
C 321.138 90.423467 320.642989 90.304785 319.761988 90.217292 
C 318.880986 90.1298 317.685924 90.08064 316.44 90.08064 
C 315.194076 90.08064 313.999014 90.1298 313.118012 90.217292 
C 312.237011 90.304785 311.742 90.423467 311.742 90.5472 
C 311.742 90.670933 312.237011 90.789615 313.118012 90.877108 
C 313.999014 90.9646 315.194076 91.01376 316.44 91.01376 
z
" style="fill:#ff0000;"/>
   </g>
   <g id="patch_22">
    <path clip-path="url(#pb0e75122cf)" d="M 316.44 81.68256 
C 317.685924 81.68256 318.880986 81.6334 319.761988 81.545908 
C 320.642989 81.458415 321.138 81.339733 321.138 81.216 
C 321.138 81.092267 320.642989 80.973585 319.761988 80.886092 
C 318.880986 80.7986 317.685924 80.74944 316.44 80.74944 
C 315.194076 80.74944 313.999014 80.7986 313.118012 80.886092 
C 312.237011 80.973585 311.742 81.092267 311.742 81.216 
C 311.742 81.339733 312.237011 81.458415 313.118012 81.545908 
C 313.999014 81.6334 315.194076 81.68256 316.44 81.68256 
z
" style="fill:#ff0000;"/>
   </g>
   <g id="patch_23">
    <path clip-path="url(#pb0e75122cf)" d="M 316.44 72.35136 
C 317.685924 72.35136 318.880986 72.3022 319.761988 72.214708 
C 320.642989 72.127215 321.138 72.008533 321.138 71.8848 
C 321.138 71.761067 320.642989 71.642385 319.761988 71.554892 
C 318.880986 71.4674 317.685924 71.41824 316.44 71.41824 
C 315.194076 71.41824 313.999014 71.4674 313.118012 71.554892 
C 312.237011 71.642385 311.742 71.761067 311.742 71.8848 
C 311.742 72.008533 312.237011 72.127215 313.118012 72.214708 
C 313.999014 72.3022 315.194076 72.35136 316.44 72.35136 
z
" style="fill:#ff0000;"/>
   </g>
   <g id="patch_24">
    <path clip-path="url(#pb0e75122cf)" d="M 316.44 63.02016 
C 317.685924 63.02016 318.880986 62.971 319.761988 62.883508 
C 320.642989 62.796015 321.138 62.677333 321.138 62.5536 
C 321.138 62.429867 320.642989 62.311185 319.761988 62.223692 
C 318.880986 62.1362 317.685924 62.08704 316.44 62.08704 
C 315.194076 62.08704 313.999014 62.1362 313.118012 62.223692 
C 312.237011 62.311185 311.742 62.429867 311.742 62.5536 
C 311.742 62.677333 312.237011 62.796015 313.118012 62.883508 
C 313.999014 62.971 315.194076 63.02016 316.44 63.02016 
z
" style="fill:#ff0000;"/>
   </g>
   <g id="patch_25">
    <path clip-path="url(#pb0e75122cf)" d="M 316.44 53.68896 
C 317.685924 53.68896 318.880986 53.6398 319.761988 53.552308 
C 320.642989 53.464815 321.138 53.346133 321.138 53.2224 
C 321.138 53.098667 320.642989 52.979985 319.761988 52.892492 
C 318.880986 52.805 317.685924 52.75584 316.44 52.75584 
C 315.194076 52.75584 313.999014 52.805 313.118012 52.892492 
C 312.237011 52.979985 311.742 53.098667 311.742 53.2224 
C 311.742 53.346133 312.237011 53.464815 313.118012 53.552308 
C 313.999014 53.6398 315.194076 53.68896 316.44 53.68896 
z
" style="fill:#ff0000;"/>
   </g>
   <g id="patch_26">
    <path clip-path="url(#pb0e75122cf)" d="M 128.52 258.97536 
C 129.765924 258.97536 130.960986 258.9262 131.841988 258.838708 
C 132.722989 258.751215 133.218 258.632533 133.218 258.5088 
C 133.218 258.385067 132.722989 258.266385 131.841988 258.178892 
C 130.960986 258.0914 129.765924 258.04224 128.52 258.04224 
C 127.274076 258.04224 126.079014 258.0914 125.198012 258.178892 
C 124.317011 258.266385 123.822 258.385067 123.822 258.5088 
C 123.822 258.632533 124.317011 258.751215 125.198012 258.838708 
C 126.079014 258.9262 127.274076 258.97536 128.52 258.97536 
z
" style="fill:#0000ff;"/>
   </g>
   <g id="patch_27">
    <path clip-path="url(#pb0e75122cf)" d="M 128.52 249.64416 
C 129.765924 249.64416 130.960986 249.595 131.841988 249.507508 
C 132.722989 249.420015 133.218 249.301333 133.218 249.1776 
C 133.218 249.053867 132.722989 248.935185 131.841988 248.847692 
C 130.960986 248.7602 129.765924 248.71104 128.52 248.71104 
C 127.274076 248.71104 126.079014 248.7602 125.198012 248.847692 
C 124.317011 248.935185 123.822 249.053867 123.822 249.1776 
C 123.822 249.301333 124.317011 249.420015 125.198012 249.507508 
C 126.079014 249.595 127.274076 249.64416 128.52 249.64416 
z
" style="fill:#0000ff;"/>
   </g>
   <g id="patch_28">
    <path clip-path="url(#pb0e75122cf)" d="M 128.52 240.31296 
C 129.765924 240.31296 130.960986 240.2638 131.841988 240.176308 
C 132.722989 240.088815 133.218 239.970133 133.218 239.8464 
C 133.218 239.722667 132.722989 239.603985 131.841988 239.516492 
C 130.960986 239.429 129.765924 239.37984 128.52 239.37984 
C 127.274076 239.37984 126.079014 239.429 125.198012 239.516492 
C 124.317011 239.603985 123.822 239.722667 123.822 239.8464 
C 123.822 239.970133 124.317011 240.088815 125.198012 240.176308 
C 126.079014 240.2638 127.274076 240.31296 128.52 240.31296 
z
" style="fill:#0000ff;"/>
   </g>
   <g id="patch_29">
    <path clip-path="url(#pb0e75122cf)" d="M 128.52 230.98176 
C 129.765924 230.98176 130.960986 230.9326 131.841988 230.845108 
C 132.722989 230.757615 133.218 230.638933 133.218 230.5152 
C 133.218 230.391467 132.722989 230.272785 131.841988 230.185292 
C 130.960986 230.0978 129.765924 230.04864 128.52 230.04864 
C 127.274076 230.04864 126.079014 230.0978 125.198012 230.185292 
C 124.317011 230.272785 123.822 230.391467 123.822 230.5152 
C 123.822 230.638933 124.317011 230.757615 125.198012 230.845108 
C 126.079014 230.9326 127.274076 230.98176 128.52 230.98176 
z
" style="fill:#0000ff;"/>
   </g>
   <g id="patch_30">
    <path clip-path="url(#pb0e75122cf)" d="M 128.52 221.65056 
C 129.765924 221.65056 130.960986 221.6014 131.841988 221.513908 
C 132.722989 221.426415 133.218 221.307733 133.218 221.184 
C 133.218 221.060267 132.722989 220.941585 131.841988 220.854092 
C 130.960986 220.7666 129.765924 220.71744 128.52 220.71744 
C 127.274076 220.71744 126.079014 220.7666 125.198012 220.854092 
C 124.317011 220.941585 123.822 221.060267 123.822 221.184 
C 123.822 221.307733 124.317011 221.426415 125.198012 221.513908 
C 126.079014 221.6014 127.274076 221.65056 128.52 221.65056 
z
" style="fill:#0000ff;"/>
   </g>
   <g id="patch_31">
    <path clip-path="url(#pb0e75122cf)" d="M 128.52 212.31936 
C 129.765924 212.31936 130.960986 212.2702 131.841988 212.182708 
C 132.722989 212.095215 133.218 211.976533 133.218 211.8528 
C 133.218 211.729067 132.722989 211.610385 131.841988 211.522892 
C 130.960986 211.4354 129.765924 211.38624 128.52 211.38624 
C 127.274076 211.38624 126.079014 211.4354 125.198012 211.522892 
C 124.317011 211.610385 123.822 211.729067 123.822 211.8528 
C 123.822 211.976533 124.317011 212.095215 125.198012 212.182708 
C 126.079014 212.2702 127.274076 212.31936 128.52 212.31936 
z
" style="fill:#0000ff;"/>
   </g>
   <g id="patch_32">
    <path clip-path="url(#pb0e75122cf)" d="M 128.52 202.98816 
C 129.765924 202.98816 130.960986 202.939 131.841988 202.851508 
C 132.722989 202.764015 133.218 202.645333 133.218 202.5216 
C 133.218 202.397867 132.722989 202.279185 131.841988 202.191692 
C 130.960986 202.1042 129.765924 202.05504 128.52 202.05504 
C 127.274076 202.05504 126.079014 202.1042 125.198012 202.191692 
C 124.317011 202.279185 123.822 202.397867 123.822 202.5216 
C 123.822 202.645333 124.317011 202.764015 125.198012 202.851508 
C 126.079014 202.939 127.274076 202.98816 128.52 202.98816 
z
" style="fill:#0000ff;"/>
   </g>
   <g id="patch_33">
    <path clip-path="url(#pb0e75122cf)" d="M 128.52 193.65696 
C 129.765924 193.65696 130.960986 193.6078 131.841988 193.520308 
C 132.722989 193.432815 133.218 193.314133 133.218 193.1904 
C 133.218 193.066667 132.722989 192.947985 131.841988 192.860492 
C 130.960986 192.773 129.765924 192.72384 128.52 192.72384 
C 127.274076 192.72384 126.079014 192.773 125.198012 192.860492 
C 124.317011 192.947985 123.822 193.066667 123.822 193.1904 
C 123.822 193.314133 124.317011 193.432815 125.198012 193.520308 
C 126.079014 193.6078 127.274076 193.65696 128.52 193.65696 
z
" style="fill:#0000ff;"/>
   </g>
   <g id="patch_34">
    <path clip-path="url(#pb0e75122cf)" d="M 128.52 184.32576 
C 129.765924 184.32576 130.960986 184.2766 131.841988 184.189108 
C 132.722989 184.101615 133.218 183.982933 133.218 183.8592 
C 133.218 183.735467 132.722989 183.616785 131.841988 183.529292 
C 130.960986 183.4418 129.765924 183.39264 128.52 183.39264 
C 127.274076 183.39264 126.079014 183.4418 125.198012 183.529292 
C 124.317011 183.616785 123.822 183.735467 123.822 183.8592 
C 123.822 183.982933 124.317011 184.101615 125.198012 184.189108 
C 126.079014 184.2766 127.274076 184.32576 128.52 184.32576 
z
" style="fill:#0000ff;"/>
   </g>
   <g id="patch_35">
    <path clip-path="url(#pb0e75122cf)" d="M 128.52 174.99456 
C 129.765924 174.99456 130.960986 174.9454 131.841988 174.857908 
C 132.722989 174.770415 133.218 174.651733 133.218 174.528 
C 133.218 174.404267 132.722989 174.285585 131.841988 174.198092 
C 130.960986 174.1106 129.765924 174.06144 128.52 174.06144 
C 127.274076 174.06144 126.079014 174.1106 125.198012 174.198092 
C 124.317011 174.285585 123.822 174.404267 123.822 174.528 
C 123.822 174.651733 124.317011 174.770415 125.198012 174.857908 
C 126.079014 174.9454 127.274076 174.99456 128.52 174.99456 
z
" style="fill:#0000ff;"/>
   </g>
   <g id="patch_36">
    <path clip-path="url(#pb0e75122cf)" d="M 128.52 165.66336 
C 129.765924 165.66336 130.960986 165.6142 131.841988 165.526708 
C 132.722989 165.439215 133.218 165.320533 133.218 165.1968 
C 133.218 165.073067 132.722989 164.954385 131.841988 164.866892 
C 130.960986 164.7794 129.765924 164.73024 128.52 164.73024 
C 127.274076 164.73024 126.079014 164.7794 125.198012 164.866892 
C 124.317011 164.954385 123.822 165.073067 123.822 165.1968 
C 123.822 165.320533 124.317011 165.439215 125.198012 165.526708 
C 126.079014 165.6142 127.274076 165.66336 128.52 165.66336 
z
" style="fill:#0000ff;"/>
   </g>
   <g id="patch_37">
    <path clip-path="url(#pb0e75122cf)" d="M 128.52 156.33216 
C 129.765924 156.33216 130.960986 156.283 131.841988 156.195508 
C 132.722989 156.108015 133.218 155.989333 133.218 155.8656 
C 133.218 155.741867 132.722989 155.623185 131.841988 155.535692 
C 130.960986 155.4482 129.765924 155.39904 128.52 155.39904 
C 127.274076 155.39904 126.079014 155.4482 125.198012 155.535692 
C 124.317011 155.623185 123.822 155.741867 123.822 155.8656 
C 123.822 155.989333 124.317011 156.108015 125.198012 156.195508 
C 126.079014 156.283 127.274076 156.33216 128.52 156.33216 
z
" style="fill:#0000ff;"/>
   </g>
   <g id="patch_38">
    <path clip-path="url(#pb0e75122cf)" d="M 128.52 147.00096 
C 129.765924 147.00096 130.960986 146.9518 131.841988 146.864308 
C 132.722989 146.776815 133.218 146.658133 133.218 146.5344 
C 133.218 146.410667 132.722989 146.291985 131.841988 146.204492 
C 130.960986 146.117 129.765924 146.06784 128.52 146.06784 
C 127.274076 146.06784 126.079014 146.117 125.198012 146.204492 
C 124.317011 146.291985 123.822 146.410667 123.822 146.5344 
C 123.822 146.658133 124.317011 146.776815 125.198012 146.864308 
C 126.079014 146.9518 127.274076 147.00096 128.52 147.00096 
z
" style="fill:#0000ff;"/>
   </g>
   <g id="patch_39">
    <path clip-path="url(#pb0e75122cf)" d="M 128.52 137.66976 
C 129.765924 137.66976 130.960986 137.6206 131.841988 137.533108 
C 132.722989 137.445615 133.218 137.326933 133.218 137.2032 
C 133.218 137.079467 132.722989 136.960785 131.841988 136.873292 
C 130.960986 136.7858 129.765924 136.73664 128.52 136.73664 
C 127.274076 136.73664 126.079014 136.7858 125.198012 136.873292 
C 124.317011 136.960785 123.822 137.079467 123.822 137.2032 
C 123.822 137.326933 124.317011 137.445615 125.198012 137.533108 
C 126.079014 137.6206 127.274076 137.66976 128.52 137.66976 
z
" style="fill:#0000ff;"/>
   </g>
   <g id="patch_40">
    <path clip-path="url(#pb0e75122cf)" d="M 128.52 128.33856 
C 129.765924 128.33856 130.960986 128.2894 131.841988 128.201908 
C 132.722989 128.114415 133.218 127.995733 133.218 127.872 
C 133.218 127.748267 132.722989 127.629585 131.841988 127.542092 
C 130.960986 127.4546 129.765924 127.40544 128.52 127.40544 
C 127.274076 127.40544 126.079014 127.4546 125.198012 127.542092 
C 124.317011 127.629585 123.822 127.748267 123.822 127.872 
C 123.822 127.995733 124.317011 128.114415 125.198012 128.201908 
C 126.079014 128.2894 127.274076 128.33856 128.52 128.33856 
z
" style="fill:#0000ff;"/>
   </g>
   <g id="patch_41">
    <path clip-path="url(#pb0e75122cf)" d="M 128.52 119.00736 
C 129.765924 119.00736 130.960986 118.9582 131.841988 118.870708 
C 132.722989 118.783215 133.218 118.664533 133.218 118.5408 
C 133.218 118.417067 132.722989 118.298385 131.841988 118.210892 
C 130.960986 118.1234 129.765924 118.07424 128.52 118.07424 
C 127.274076 118.07424 126.079014 118.1234 125.198012 118.210892 
C 124.317011 118.298385 123.822 118.417067 123.822 118.5408 
C 123.822 118.664533 124.317011 118.783215 125.198012 118.870708 
C 126.079014 118.9582 127.274076 119.00736 128.52 119.00736 
z
" style="fill:#0000ff;"/>
   </g>
   <g id="patch_42">
    <path clip-path="url(#pb0e75122cf)" d="M 128.52 109.67616 
C 129.765924 109.67616 130.960986 109.627 131.841988 109.539508 
C 132.722989 109.452015 133.218 109.333333 133.218 109.2096 
C 133.218 109.085867 132.722989 108.967185 131.841988 108.879692 
C 130.960986 108.7922 129.765924 108.74304 128.52 108.74304 
C 127.274076 108.74304 126.079014 108.7922 125.198012 108.879692 
C 124.317011 108.967185 123.822 109.085867 123.822 109.2096 
C 123.822 109.333333 124.317011 109.452015 125.198012 109.539508 
C 126.079014 109.627 127.274076 109.67616 128.52 109.67616 
z
" style="fill:#0000ff;"/>
   </g>
   <g id="patch_43">
    <path clip-path="url(#pb0e75122cf)" d="M 128.52 100.34496 
C 129.765924 100.34496 130.960986 100.2958 131.841988 100.208308 
C 132.722989 100.120815 133.218 100.002133 133.218 99.8784 
C 133.218 99.754667 132.722989 99.635985 131.841988 99.548492 
C 130.960986 99.461 129.765924 99.41184 128.52 99.41184 
C 127.274076 99.41184 126.079014 99.461 125.198012 99.548492 
C 124.317011 99.635985 123.822 99.754667 123.822 99.8784 
C 123.822 100.002133 124.317011 100.120815 125.198012 100.208308 
C 126.079014 100.2958 127.274076 100.34496 128.52 100.34496 
z
" style="fill:#0000ff;"/>
   </g>
   <g id="patch_44">
    <path clip-path="url(#pb0e75122cf)" d="M 128.52 91.01376 
C 129.765924 91.01376 130.960986 90.9646 131.841988 90.877108 
C 132.722989 90.789615 133.218 90.670933 133.218 90.5472 
C 133.218 90.423467 132.722989 90.304785 131.841988 90.217292 
C 130.960986 90.1298 129.765924 90.08064 128.52 90.08064 
C 127.274076 90.08064 126.079014 90.1298 125.198012 90.217292 
C 124.317011 90.304785 123.822 90.423467 123.822 90.5472 
C 123.822 90.670933 124.317011 90.789615 125.198012 90.877108 
C 126.079014 90.9646 127.274076 91.01376 128.52 91.01376 
z
" style="fill:#0000ff;"/>
   </g>
   <g id="patch_45">
    <path clip-path="url(#pb0e75122cf)" d="M 128.52 81.68256 
C 129.765924 81.68256 130.960986 81.6334 131.841988 81.545908 
C 132.722989 81.458415 133.218 81.339733 133.218 81.216 
C 133.218 81.092267 132.722989 80.973585 131.841988 80.886092 
C 130.960986 80.7986 129.765924 80.74944 128.52 80.74944 
C 127.274076 80.74944 126.079014 80.7986 125.198012 80.886092 
C 124.317011 80.973585 123.822 81.092267 123.822 81.216 
C 123.822 81.339733 124.317011 81.458415 125.198012 81.545908 
C 126.079014 81.6334 127.274076 81.68256 128.52 81.68256 
z
" style="fill:#0000ff;"/>
   </g>
   <g id="patch_46">
    <path clip-path="url(#pb0e75122cf)" d="M 128.52 72.35136 
C 129.765924 72.35136 130.960986 72.3022 131.841988 72.214708 
C 132.722989 72.127215 133.218 72.008533 133.218 71.8848 
C 133.218 71.761067 132.722989 71.642385 131.841988 71.554892 
C 130.960986 71.4674 129.765924 71.41824 128.52 71.41824 
C 127.274076 71.41824 126.079014 71.4674 125.198012 71.554892 
C 124.317011 71.642385 123.822 71.761067 123.822 71.8848 
C 123.822 72.008533 124.317011 72.127215 125.198012 72.214708 
C 126.079014 72.3022 127.274076 72.35136 128.52 72.35136 
z
" style="fill:#0000ff;"/>
   </g>
   <g id="patch_47">
    <path clip-path="url(#pb0e75122cf)" d="M 128.52 63.02016 
C 129.765924 63.02016 130.960986 62.971 131.841988 62.883508 
C 132.722989 62.796015 133.218 62.677333 133.218 62.5536 
C 133.218 62.429867 132.722989 62.311185 131.841988 62.223692 
C 130.960986 62.1362 129.765924 62.08704 128.52 62.08704 
C 127.274076 62.08704 126.079014 62.1362 125.198012 62.223692 
C 124.317011 62.311185 123.822 62.429867 123.822 62.5536 
C 123.822 62.677333 124.317011 62.796015 125.198012 62.883508 
C 126.079014 62.971 127.274076 63.02016 128.52 63.02016 
z
" style="fill:#0000ff;"/>
   </g>
   <g id="patch_48">
    <path clip-path="url(#pb0e75122cf)" d="M 128.52 53.68896 
C 129.765924 53.68896 130.960986 53.6398 131.841988 53.552308 
C 132.722989 53.464815 133.218 53.346133 133.218 53.2224 
C 133.218 53.098667 132.722989 52.979985 131.841988 52.892492 
C 130.960986 52.805 129.765924 52.75584 128.52 52.75584 
C 127.274076 52.75584 126.079014 52.805 125.198012 52.892492 
C 124.317011 52.979985 123.822 53.098667 123.822 53.2224 
C 123.822 53.346133 124.317011 53.464815 125.198012 53.552308 
C 126.079014 53.6398 127.274076 53.68896 128.52 53.68896 
z
" style="fill:#0000ff;"/>
   </g>
   <g id="line2d_1">
    <path clip-path="url(#pb0e75122cf)" d="M 128.52 53.2224 
L 316.44 53.2224 
" style="fill:none;stroke:#008000;stroke-width:4;"/>
   </g>
   <g id="line2d_2">
    <path clip-path="url(#pb0e75122cf)" d="M 128.52 62.5536 
L 316.44 62.5536 
" style="fill:none;stroke:#008000;stroke-width:4;"/>
   </g>
   <g id="line2d_3">
    <path clip-path="url(#pb0e75122cf)" d="M 128.52 71.8848 
L 316.44 127.872 
" style="fill:none;stroke:#008000;stroke-width:4;"/>
   </g>
   <g id="line2d_4">
    <path clip-path="url(#pb0e75122cf)" d="M 128.52 81.216 
L 316.44 71.8848 
" style="fill:none;stroke:#008000;stroke-width:4;"/>
   </g>
   <g id="line2d_5">
    <path clip-path="url(#pb0e75122cf)" d="M 128.52 90.5472 
L 316.44 81.216 
" style="fill:none;stroke:#008000;stroke-width:4;"/>
   </g>
   <g id="line2d_6">
    <path clip-path="url(#pb0e75122cf)" d="M 128.52 99.8784 
L 316.44 99.8784 
" style="fill:none;stroke:#008000;stroke-width:4;"/>
   </g>
   <g id="line2d_7">
    <path clip-path="url(#pb0e75122cf)" d="M 128.52 109.2096 
L 316.44 90.5472 
" style="fill:none;stroke:#008000;stroke-width:4;"/>
   </g>
   <g id="line2d_8">
    <path clip-path="url(#pb0e75122cf)" d="M 128.52 118.5408 
L 316.44 155.8656 
" style="fill:none;stroke:#008000;stroke-width:4;"/>
   </g>
   <g id="line2d_9">
    <path clip-path="url(#pb0e75122cf)" d="M 128.52 127.872 
L 316.44 109.2096 
" style="fill:none;stroke:#008000;stroke-width:4;"/>
   </g>
   <g id="line2d_10">
    <path clip-path="url(#pb0e75122cf)" d="M 128.52 137.2032 
L 316.44 146.5344 
" style="fill:none;stroke:#008000;stroke-width:4;"/>
   </g>
   <g id="line2d_11">
    <path clip-path="url(#pb0e75122cf)" d="M 128.52 146.5344 
L 316.44 118.5408 
" style="fill:none;stroke:#008000;stroke-width:4;"/>
   </g>
   <g id="line2d_12">
    <path clip-path="url(#pb0e75122cf)" d="M 128.52 155.8656 
L 316.44 137.2032 
" style="fill:none;stroke:#008000;stroke-width:4;"/>
   </g>
   <g id="line2d_13">
    <path clip-path="url(#pb0e75122cf)" d="M 128.52 165.1968 
L 316.44 165.1968 
" style="fill:none;stroke:#008000;stroke-width:4;"/>
   </g>
   <g id="line2d_14">
    <path clip-path="url(#pb0e75122cf)" d="M 128.52 174.528 
L 316.44 193.1904 
" style="fill:none;stroke:#008000;stroke-width:4;"/>
   </g>
   <g id="line2d_15">
    <path clip-path="url(#pb0e75122cf)" d="M 128.52 183.8592 
L 316.44 174.528 
" style="fill:none;stroke:#008000;stroke-width:4;"/>
   </g>
   <g id="line2d_16">
    <path clip-path="url(#pb0e75122cf)" d="M 128.52 193.1904 
L 316.44 183.8592 
" style="fill:none;stroke:#008000;stroke-width:4;"/>
   </g>
   <g id="line2d_17">
    <path clip-path="url(#pb0e75122cf)" d="M 128.52 202.5216 
L 316.44 202.5216 
" style="fill:none;stroke:#008000;stroke-width:4;"/>
   </g>
   <g id="line2d_18">
    <path clip-path="url(#pb0e75122cf)" d="M 128.52 211.8528 
L 316.44 221.184 
" style="fill:none;stroke:#008000;stroke-width:4;"/>
   </g>
   <g id="line2d_19">
    <path clip-path="url(#pb0e75122cf)" d="M 128.52 221.184 
L 316.44 211.8528 
" style="fill:none;stroke:#008000;stroke-width:4;"/>
   </g>
   <g id="line2d_20">
    <path clip-path="url(#pb0e75122cf)" d="M 128.52 230.5152 
L 316.44 230.5152 
" style="fill:none;stroke:#008000;stroke-width:4;"/>
   </g>
   <g id="line2d_21">
    <path clip-path="url(#pb0e75122cf)" d="M 128.52 239.8464 
L 316.44 239.8464 
" style="fill:none;stroke:#008000;stroke-width:4;"/>
   </g>
   <g id="line2d_22">
    <path clip-path="url(#pb0e75122cf)" d="M 128.52 249.1776 
L 316.44 258.5088 
" style="fill:none;stroke:#008000;stroke-width:4;"/>
   </g>
   <g id="line2d_23">
    <path clip-path="url(#pb0e75122cf)" d="M 128.52 258.5088 
L 316.44 249.1776 
" style="fill:none;stroke:#008000;stroke-width:4;"/>
   </g>
   <g id="patch_49">
    <path d="M 34.56 267.84 
L 34.56 34.56 
" style="fill:none;stroke:#f0f0f0;stroke-linecap:square;stroke-linejoin:miter;stroke-width:3;"/>
   </g>
   <g id="patch_50">
    <path d="M 410.4 267.84 
L 410.4 34.56 
" style="fill:none;stroke:#f0f0f0;stroke-linecap:square;stroke-linejoin:miter;stroke-width:3;"/>
   </g>
   <g id="patch_51">
    <path d="M 34.56 267.84 
L 410.4 267.84 
" style="fill:none;stroke:#f0f0f0;stroke-linecap:square;stroke-linejoin:miter;stroke-width:3;"/>
   </g>
   <g id="patch_52">
    <path d="M 34.56 34.56 
L 410.4 34.56 
" style="fill:none;stroke:#f0f0f0;stroke-linecap:square;stroke-linejoin:miter;stroke-width:3;"/>
   </g>
   <g id="text_1">
    <!-- Travels -->
    <g transform="translate(316.44 257.57568)scale(0.08 -0.08)">
     <defs>
      <path d="M -0.296875 72.90625 
L 61.375 72.90625 
L 61.375 64.59375 
L 35.5 64.59375 
L 35.5 0 
L 25.59375 0 
L 25.59375 64.59375 
L -0.296875 64.59375 
z
" id="DejaVuSans-84"/>
      <path d="M 41.109375 46.296875 
Q 39.59375 47.171875 37.8125 47.578125 
Q 36.03125 48 33.890625 48 
Q 26.265625 48 22.1875 43.046875 
Q 18.109375 38.09375 18.109375 28.8125 
L 18.109375 0 
L 9.078125 0 
L 9.078125 54.6875 
L 18.109375 54.6875 
L 18.109375 46.1875 
Q 20.953125 51.171875 25.484375 53.578125 
Q 30.03125 56 36.53125 56 
Q 37.453125 56 38.578125 55.875 
Q 39.703125 55.765625 41.0625 55.515625 
z
" id="DejaVuSans-114"/>
      <path d="M 34.28125 27.484375 
Q 23.390625 27.484375 19.1875 25 
Q 14.984375 22.515625 14.984375 16.5 
Q 14.984375 11.71875 18.140625 8.90625 
Q 21.296875 6.109375 26.703125 6.109375 
Q 34.1875 6.109375 38.703125 11.40625 
Q 43.21875 16.703125 43.21875 25.484375 
L 43.21875 27.484375 
z
M 52.203125 31.203125 
L 52.203125 0 
L 43.21875 0 
L 43.21875 8.296875 
Q 40.140625 3.328125 35.546875 0.953125 
Q 30.953125 -1.421875 24.3125 -1.421875 
Q 15.921875 -1.421875 10.953125 3.296875 
Q 6 8.015625 6 15.921875 
Q 6 25.140625 12.171875 29.828125 
Q 18.359375 34.515625 30.609375 34.515625 
L 43.21875 34.515625 
L 43.21875 35.40625 
Q 43.21875 41.609375 39.140625 45 
Q 35.0625 48.390625 27.6875 48.390625 
Q 23 48.390625 18.546875 47.265625 
Q 14.109375 46.140625 10.015625 43.890625 
L 10.015625 52.203125 
Q 14.9375 54.109375 19.578125 55.046875 
Q 24.21875 56 28.609375 56 
Q 40.484375 56 46.34375 49.84375 
Q 52.203125 43.703125 52.203125 31.203125 
z
" id="DejaVuSans-97"/>
      <path d="M 2.984375 54.6875 
L 12.5 54.6875 
L 29.59375 8.796875 
L 46.6875 54.6875 
L 56.203125 54.6875 
L 35.6875 0 
L 23.484375 0 
z
" id="DejaVuSans-118"/>
      <path d="M 56.203125 29.59375 
L 56.203125 25.203125 
L 14.890625 25.203125 
Q 15.484375 15.921875 20.484375 11.0625 
Q 25.484375 6.203125 34.421875 6.203125 
Q 39.59375 6.203125 44.453125 7.46875 
Q 49.3125 8.734375 54.109375 11.28125 
L 54.109375 2.78125 
Q 49.265625 0.734375 44.1875 -0.34375 
Q 39.109375 -1.421875 33.890625 -1.421875 
Q 20.796875 -1.421875 13.15625 6.1875 
Q 5.515625 13.8125 5.515625 26.8125 
Q 5.515625 40.234375 12.765625 48.109375 
Q 20.015625 56 32.328125 56 
Q 43.359375 56 49.78125 48.890625 
Q 56.203125 41.796875 56.203125 29.59375 
z
M 47.21875 32.234375 
Q 47.125 39.59375 43.09375 43.984375 
Q 39.0625 48.390625 32.421875 48.390625 
Q 24.90625 48.390625 20.390625 44.140625 
Q 15.875 39.890625 15.1875 32.171875 
z
" id="DejaVuSans-101"/>
      <path d="M 9.421875 75.984375 
L 18.40625 75.984375 
L 18.40625 0 
L 9.421875 0 
z
" id="DejaVuSans-108"/>
      <path d="M 44.28125 53.078125 
L 44.28125 44.578125 
Q 40.484375 46.53125 36.375 47.5 
Q 32.28125 48.484375 27.875 48.484375 
Q 21.1875 48.484375 17.84375 46.4375 
Q 14.5 44.390625 14.5 40.28125 
Q 14.5 37.15625 16.890625 35.375 
Q 19.28125 33.59375 26.515625 31.984375 
L 29.59375 31.296875 
Q 39.15625 29.25 43.1875 25.515625 
Q 47.21875 21.78125 47.21875 15.09375 
Q 47.21875 7.46875 41.1875 3.015625 
Q 35.15625 -1.421875 24.609375 -1.421875 
Q 20.21875 -1.421875 15.453125 -0.5625 
Q 10.6875 0.296875 5.421875 2 
L 5.421875 11.28125 
Q 10.40625 8.6875 15.234375 7.390625 
Q 20.0625 6.109375 24.8125 6.109375 
Q 31.15625 6.109375 34.5625 8.28125 
Q 37.984375 10.453125 37.984375 14.40625 
Q 37.984375 18.0625 35.515625 20.015625 
Q 33.0625 21.96875 24.703125 23.78125 
L 21.578125 24.515625 
Q 13.234375 26.265625 9.515625 29.90625 
Q 5.8125 33.546875 5.8125 39.890625 
Q 5.8125 47.609375 11.28125 51.796875 
Q 16.75 56 26.8125 56 
Q 31.78125 56 36.171875 55.265625 
Q 40.578125 54.546875 44.28125 53.078125 
z
" id="DejaVuSans-115"/>
     </defs>
     <use xlink:href="#DejaVuSans-84"/>
     <use x="46.333984" xlink:href="#DejaVuSans-114"/>
     <use x="87.447266" xlink:href="#DejaVuSans-97"/>
     <use x="148.726562" xlink:href="#DejaVuSans-118"/>
     <use x="207.90625" xlink:href="#DejaVuSans-101"/>
     <use x="269.429688" xlink:href="#DejaVuSans-108"/>
     <use x="297.212891" xlink:href="#DejaVuSans-115"/>
    </g>
   </g>
   <g id="text_2">
    <!-- Weblog -->
    <g transform="translate(316.44 248.24448)scale(0.08 -0.08)">
     <defs>
      <path d="M 3.328125 72.90625 
L 13.28125 72.90625 
L 28.609375 11.28125 
L 43.890625 72.90625 
L 54.984375 72.90625 
L 70.3125 11.28125 
L 85.59375 72.90625 
L 95.609375 72.90625 
L 77.296875 0 
L 64.890625 0 
L 49.515625 63.28125 
L 33.984375 0 
L 21.578125 0 
z
" id="DejaVuSans-87"/>
      <path d="M 48.6875 27.296875 
Q 48.6875 37.203125 44.609375 42.84375 
Q 40.53125 48.484375 33.40625 48.484375 
Q 26.265625 48.484375 22.1875 42.84375 
Q 18.109375 37.203125 18.109375 27.296875 
Q 18.109375 17.390625 22.1875 11.75 
Q 26.265625 6.109375 33.40625 6.109375 
Q 40.53125 6.109375 44.609375 11.75 
Q 48.6875 17.390625 48.6875 27.296875 
z
M 18.109375 46.390625 
Q 20.953125 51.265625 25.265625 53.625 
Q 29.59375 56 35.59375 56 
Q 45.5625 56 51.78125 48.09375 
Q 58.015625 40.1875 58.015625 27.296875 
Q 58.015625 14.40625 51.78125 6.484375 
Q 45.5625 -1.421875 35.59375 -1.421875 
Q 29.59375 -1.421875 25.265625 0.953125 
Q 20.953125 3.328125 18.109375 8.203125 
L 18.109375 0 
L 9.078125 0 
L 9.078125 75.984375 
L 18.109375 75.984375 
z
" id="DejaVuSans-98"/>
      <path d="M 30.609375 48.390625 
Q 23.390625 48.390625 19.1875 42.75 
Q 14.984375 37.109375 14.984375 27.296875 
Q 14.984375 17.484375 19.15625 11.84375 
Q 23.34375 6.203125 30.609375 6.203125 
Q 37.796875 6.203125 41.984375 11.859375 
Q 46.1875 17.53125 46.1875 27.296875 
Q 46.1875 37.015625 41.984375 42.703125 
Q 37.796875 48.390625 30.609375 48.390625 
z
M 30.609375 56 
Q 42.328125 56 49.015625 48.375 
Q 55.71875 40.765625 55.71875 27.296875 
Q 55.71875 13.875 49.015625 6.21875 
Q 42.328125 -1.421875 30.609375 -1.421875 
Q 18.84375 -1.421875 12.171875 6.21875 
Q 5.515625 13.875 5.515625 27.296875 
Q 5.515625 40.765625 12.171875 48.375 
Q 18.84375 56 30.609375 56 
z
" id="DejaVuSans-111"/>
      <path d="M 45.40625 27.984375 
Q 45.40625 37.75 41.375 43.109375 
Q 37.359375 48.484375 30.078125 48.484375 
Q 22.859375 48.484375 18.828125 43.109375 
Q 14.796875 37.75 14.796875 27.984375 
Q 14.796875 18.265625 18.828125 12.890625 
Q 22.859375 7.515625 30.078125 7.515625 
Q 37.359375 7.515625 41.375 12.890625 
Q 45.40625 18.265625 45.40625 27.984375 
z
M 54.390625 6.78125 
Q 54.390625 -7.171875 48.1875 -13.984375 
Q 42 -20.796875 29.203125 -20.796875 
Q 24.46875 -20.796875 20.265625 -20.09375 
Q 16.0625 -19.390625 12.109375 -17.921875 
L 12.109375 -9.1875 
Q 16.0625 -11.328125 19.921875 -12.34375 
Q 23.78125 -13.375 27.78125 -13.375 
Q 36.625 -13.375 41.015625 -8.765625 
Q 45.40625 -4.15625 45.40625 5.171875 
L 45.40625 9.625 
Q 42.625 4.78125 38.28125 2.390625 
Q 33.9375 0 27.875 0 
Q 17.828125 0 11.671875 7.65625 
Q 5.515625 15.328125 5.515625 27.984375 
Q 5.515625 40.671875 11.671875 48.328125 
Q 17.828125 56 27.875 56 
Q 33.9375 56 38.28125 53.609375 
Q 42.625 51.21875 45.40625 46.390625 
L 45.40625 54.6875 
L 54.390625 54.6875 
z
" id="DejaVuSans-103"/>
     </defs>
     <use xlink:href="#DejaVuSans-87"/>
     <use x="93.001953" xlink:href="#DejaVuSans-101"/>
     <use x="154.525391" xlink:href="#DejaVuSans-98"/>
     <use x="218.001953" xlink:href="#DejaVuSans-108"/>
     <use x="245.785156" xlink:href="#DejaVuSans-111"/>
     <use x="306.966797" xlink:href="#DejaVuSans-103"/>
    </g>
   </g>
   <g id="text_3">
    <!-- Television -->
    <g transform="translate(316.44 238.91328)scale(0.08 -0.08)">
     <defs>
      <path d="M 9.421875 54.6875 
L 18.40625 54.6875 
L 18.40625 0 
L 9.421875 0 
z
M 9.421875 75.984375 
L 18.40625 75.984375 
L 18.40625 64.59375 
L 9.421875 64.59375 
z
" id="DejaVuSans-105"/>
      <path d="M 54.890625 33.015625 
L 54.890625 0 
L 45.90625 0 
L 45.90625 32.71875 
Q 45.90625 40.484375 42.875 44.328125 
Q 39.84375 48.1875 33.796875 48.1875 
Q 26.515625 48.1875 22.3125 43.546875 
Q 18.109375 38.921875 18.109375 30.90625 
L 18.109375 0 
L 9.078125 0 
L 9.078125 54.6875 
L 18.109375 54.6875 
L 18.109375 46.1875 
Q 21.34375 51.125 25.703125 53.5625 
Q 30.078125 56 35.796875 56 
Q 45.21875 56 50.046875 50.171875 
Q 54.890625 44.34375 54.890625 33.015625 
z
" id="DejaVuSans-110"/>
     </defs>
     <use xlink:href="#DejaVuSans-84"/>
     <use x="44.083984" xlink:href="#DejaVuSans-101"/>
     <use x="105.607422" xlink:href="#DejaVuSans-108"/>
     <use x="133.390625" xlink:href="#DejaVuSans-101"/>
     <use x="194.914062" xlink:href="#DejaVuSans-118"/>
     <use x="254.09375" xlink:href="#DejaVuSans-105"/>
     <use x="281.876953" xlink:href="#DejaVuSans-115"/>
     <use x="333.976562" xlink:href="#DejaVuSans-105"/>
     <use x="361.759766" xlink:href="#DejaVuSans-111"/>
     <use x="422.941406" xlink:href="#DejaVuSans-110"/>
    </g>
   </g>
   <g id="text_4">
    <!-- Games -->
    <g transform="translate(316.44 229.58208)scale(0.08 -0.08)">
     <defs>
      <path d="M 59.515625 10.40625 
L 59.515625 29.984375 
L 43.40625 29.984375 
L 43.40625 38.09375 
L 69.28125 38.09375 
L 69.28125 6.78125 
Q 63.578125 2.734375 56.6875 0.65625 
Q 49.8125 -1.421875 42 -1.421875 
Q 24.90625 -1.421875 15.25 8.5625 
Q 5.609375 18.5625 5.609375 36.375 
Q 5.609375 54.25 15.25 64.234375 
Q 24.90625 74.21875 42 74.21875 
Q 49.125 74.21875 55.546875 72.453125 
Q 61.96875 70.703125 67.390625 67.28125 
L 67.390625 56.78125 
Q 61.921875 61.421875 55.765625 63.765625 
Q 49.609375 66.109375 42.828125 66.109375 
Q 29.4375 66.109375 22.71875 58.640625 
Q 16.015625 51.171875 16.015625 36.375 
Q 16.015625 21.625 22.71875 14.15625 
Q 29.4375 6.6875 42.828125 6.6875 
Q 48.046875 6.6875 52.140625 7.59375 
Q 56.25 8.5 59.515625 10.40625 
z
" id="DejaVuSans-71"/>
      <path d="M 52 44.1875 
Q 55.375 50.25 60.0625 53.125 
Q 64.75 56 71.09375 56 
Q 79.640625 56 84.28125 50.015625 
Q 88.921875 44.046875 88.921875 33.015625 
L 88.921875 0 
L 79.890625 0 
L 79.890625 32.71875 
Q 79.890625 40.578125 77.09375 44.375 
Q 74.3125 48.1875 68.609375 48.1875 
Q 61.625 48.1875 57.5625 43.546875 
Q 53.515625 38.921875 53.515625 30.90625 
L 53.515625 0 
L 44.484375 0 
L 44.484375 32.71875 
Q 44.484375 40.625 41.703125 44.40625 
Q 38.921875 48.1875 33.109375 48.1875 
Q 26.21875 48.1875 22.15625 43.53125 
Q 18.109375 38.875 18.109375 30.90625 
L 18.109375 0 
L 9.078125 0 
L 9.078125 54.6875 
L 18.109375 54.6875 
L 18.109375 46.1875 
Q 21.1875 51.21875 25.484375 53.609375 
Q 29.78125 56 35.6875 56 
Q 41.65625 56 45.828125 52.96875 
Q 50 49.953125 52 44.1875 
z
" id="DejaVuSans-109"/>
     </defs>
     <use xlink:href="#DejaVuSans-71"/>
     <use x="77.490234" xlink:href="#DejaVuSans-97"/>
     <use x="138.769531" xlink:href="#DejaVuSans-109"/>
     <use x="236.181641" xlink:href="#DejaVuSans-101"/>
     <use x="297.705078" xlink:href="#DejaVuSans-115"/>
    </g>
   </g>
   <g id="text_5">
    <!-- Music -->
    <g transform="translate(316.44 220.25088)scale(0.08 -0.08)">
     <defs>
      <path d="M 9.8125 72.90625 
L 24.515625 72.90625 
L 43.109375 23.296875 
L 61.8125 72.90625 
L 76.515625 72.90625 
L 76.515625 0 
L 66.890625 0 
L 66.890625 64.015625 
L 48.09375 14.015625 
L 38.1875 14.015625 
L 19.390625 64.015625 
L 19.390625 0 
L 9.8125 0 
z
" id="DejaVuSans-77"/>
      <path d="M 8.5 21.578125 
L 8.5 54.6875 
L 17.484375 54.6875 
L 17.484375 21.921875 
Q 17.484375 14.15625 20.5 10.265625 
Q 23.53125 6.390625 29.59375 6.390625 
Q 36.859375 6.390625 41.078125 11.03125 
Q 45.3125 15.671875 45.3125 23.6875 
L 45.3125 54.6875 
L 54.296875 54.6875 
L 54.296875 0 
L 45.3125 0 
L 45.3125 8.40625 
Q 42.046875 3.421875 37.71875 1 
Q 33.40625 -1.421875 27.6875 -1.421875 
Q 18.265625 -1.421875 13.375 4.4375 
Q 8.5 10.296875 8.5 21.578125 
z
M 31.109375 56 
z
" id="DejaVuSans-117"/>
      <path d="M 48.78125 52.59375 
L 48.78125 44.1875 
Q 44.96875 46.296875 41.140625 47.34375 
Q 37.3125 48.390625 33.40625 48.390625 
Q 24.65625 48.390625 19.8125 42.84375 
Q 14.984375 37.3125 14.984375 27.296875 
Q 14.984375 17.28125 19.8125 11.734375 
Q 24.65625 6.203125 33.40625 6.203125 
Q 37.3125 6.203125 41.140625 7.25 
Q 44.96875 8.296875 48.78125 10.40625 
L 48.78125 2.09375 
Q 45.015625 0.34375 40.984375 -0.53125 
Q 36.96875 -1.421875 32.421875 -1.421875 
Q 20.0625 -1.421875 12.78125 6.34375 
Q 5.515625 14.109375 5.515625 27.296875 
Q 5.515625 40.671875 12.859375 48.328125 
Q 20.21875 56 33.015625 56 
Q 37.15625 56 41.109375 55.140625 
Q 45.0625 54.296875 48.78125 52.59375 
z
" id="DejaVuSans-99"/>
     </defs>
     <use xlink:href="#DejaVuSans-77"/>
     <use x="86.279297" xlink:href="#DejaVuSans-117"/>
     <use x="149.658203" xlink:href="#DejaVuSans-115"/>
     <use x="201.757812" xlink:href="#DejaVuSans-105"/>
     <use x="229.541016" xlink:href="#DejaVuSans-99"/>
    </g>
   </g>
   <g id="text_6">
    <!-- Sports -->
    <g transform="translate(316.44 210.91968)scale(0.08 -0.08)">
     <defs>
      <path d="M 53.515625 70.515625 
L 53.515625 60.890625 
Q 47.90625 63.578125 42.921875 64.890625 
Q 37.9375 66.21875 33.296875 66.21875 
Q 25.25 66.21875 20.875 63.09375 
Q 16.5 59.96875 16.5 54.203125 
Q 16.5 49.359375 19.40625 46.890625 
Q 22.3125 44.4375 30.421875 42.921875 
L 36.375 41.703125 
Q 47.40625 39.59375 52.65625 34.296875 
Q 57.90625 29 57.90625 20.125 
Q 57.90625 9.515625 50.796875 4.046875 
Q 43.703125 -1.421875 29.984375 -1.421875 
Q 24.8125 -1.421875 18.96875 -0.25 
Q 13.140625 0.921875 6.890625 3.21875 
L 6.890625 13.375 
Q 12.890625 10.015625 18.65625 8.296875 
Q 24.421875 6.59375 29.984375 6.59375 
Q 38.421875 6.59375 43.015625 9.90625 
Q 47.609375 13.234375 47.609375 19.390625 
Q 47.609375 24.75 44.3125 27.78125 
Q 41.015625 30.8125 33.5 32.328125 
L 27.484375 33.5 
Q 16.453125 35.6875 11.515625 40.375 
Q 6.59375 45.0625 6.59375 53.421875 
Q 6.59375 63.09375 13.40625 68.65625 
Q 20.21875 74.21875 32.171875 74.21875 
Q 37.3125 74.21875 42.625 73.28125 
Q 47.953125 72.359375 53.515625 70.515625 
z
" id="DejaVuSans-83"/>
      <path d="M 18.109375 8.203125 
L 18.109375 -20.796875 
L 9.078125 -20.796875 
L 9.078125 54.6875 
L 18.109375 54.6875 
L 18.109375 46.390625 
Q 20.953125 51.265625 25.265625 53.625 
Q 29.59375 56 35.59375 56 
Q 45.5625 56 51.78125 48.09375 
Q 58.015625 40.1875 58.015625 27.296875 
Q 58.015625 14.40625 51.78125 6.484375 
Q 45.5625 -1.421875 35.59375 -1.421875 
Q 29.59375 -1.421875 25.265625 0.953125 
Q 20.953125 3.328125 18.109375 8.203125 
z
M 48.6875 27.296875 
Q 48.6875 37.203125 44.609375 42.84375 
Q 40.53125 48.484375 33.40625 48.484375 
Q 26.265625 48.484375 22.1875 42.84375 
Q 18.109375 37.203125 18.109375 27.296875 
Q 18.109375 17.390625 22.1875 11.75 
Q 26.265625 6.109375 33.40625 6.109375 
Q 40.53125 6.109375 44.609375 11.75 
Q 48.6875 17.390625 48.6875 27.296875 
z
" id="DejaVuSans-112"/>
      <path d="M 18.3125 70.21875 
L 18.3125 54.6875 
L 36.8125 54.6875 
L 36.8125 47.703125 
L 18.3125 47.703125 
L 18.3125 18.015625 
Q 18.3125 11.328125 20.140625 9.421875 
Q 21.96875 7.515625 27.59375 7.515625 
L 36.8125 7.515625 
L 36.8125 0 
L 27.59375 0 
Q 17.1875 0 13.234375 3.875 
Q 9.28125 7.765625 9.28125 18.015625 
L 9.28125 47.703125 
L 2.6875 47.703125 
L 2.6875 54.6875 
L 9.28125 54.6875 
L 9.28125 70.21875 
z
" id="DejaVuSans-116"/>
     </defs>
     <use xlink:href="#DejaVuSans-83"/>
     <use x="63.476562" xlink:href="#DejaVuSans-112"/>
     <use x="126.953125" xlink:href="#DejaVuSans-111"/>
     <use x="188.134766" xlink:href="#DejaVuSans-114"/>
     <use x="229.248047" xlink:href="#DejaVuSans-116"/>
     <use x="268.457031" xlink:href="#DejaVuSans-115"/>
    </g>
   </g>
   <g id="text_7">
    <!-- Film -->
    <g transform="translate(316.44 201.58848)scale(0.08 -0.08)">
     <defs>
      <path d="M 9.8125 72.90625 
L 51.703125 72.90625 
L 51.703125 64.59375 
L 19.671875 64.59375 
L 19.671875 43.109375 
L 48.578125 43.109375 
L 48.578125 34.8125 
L 19.671875 34.8125 
L 19.671875 0 
L 9.8125 0 
z
" id="DejaVuSans-70"/>
     </defs>
     <use xlink:href="#DejaVuSans-70"/>
     <use x="50.269531" xlink:href="#DejaVuSans-105"/>
     <use x="78.052734" xlink:href="#DejaVuSans-108"/>
     <use x="105.835938" xlink:href="#DejaVuSans-109"/>
    </g>
   </g>
   <g id="text_8">
    <!-- The Arts -->
    <g transform="translate(316.44 192.25728)scale(0.08 -0.08)">
     <defs>
      <path d="M 54.890625 33.015625 
L 54.890625 0 
L 45.90625 0 
L 45.90625 32.71875 
Q 45.90625 40.484375 42.875 44.328125 
Q 39.84375 48.1875 33.796875 48.1875 
Q 26.515625 48.1875 22.3125 43.546875 
Q 18.109375 38.921875 18.109375 30.90625 
L 18.109375 0 
L 9.078125 0 
L 9.078125 75.984375 
L 18.109375 75.984375 
L 18.109375 46.1875 
Q 21.34375 51.125 25.703125 53.5625 
Q 30.078125 56 35.796875 56 
Q 45.21875 56 50.046875 50.171875 
Q 54.890625 44.34375 54.890625 33.015625 
z
" id="DejaVuSans-104"/>
      <path id="DejaVuSans-32"/>
      <path d="M 34.1875 63.1875 
L 20.796875 26.90625 
L 47.609375 26.90625 
z
M 28.609375 72.90625 
L 39.796875 72.90625 
L 67.578125 0 
L 57.328125 0 
L 50.6875 18.703125 
L 17.828125 18.703125 
L 11.1875 0 
L 0.78125 0 
z
" id="DejaVuSans-65"/>
     </defs>
     <use xlink:href="#DejaVuSans-84"/>
     <use x="61.083984" xlink:href="#DejaVuSans-104"/>
     <use x="124.462891" xlink:href="#DejaVuSans-101"/>
     <use x="185.986328" xlink:href="#DejaVuSans-32"/>
     <use x="217.773438" xlink:href="#DejaVuSans-65"/>
     <use x="286.181641" xlink:href="#DejaVuSans-114"/>
     <use x="327.294922" xlink:href="#DejaVuSans-116"/>
     <use x="366.503906" xlink:href="#DejaVuSans-115"/>
    </g>
   </g>
   <g id="text_9">
    <!-- Religion -->
    <g transform="translate(316.44 182.92608)scale(0.08 -0.08)">
     <defs>
      <path d="M 44.390625 34.1875 
Q 47.5625 33.109375 50.5625 29.59375 
Q 53.5625 26.078125 56.59375 19.921875 
L 66.609375 0 
L 56 0 
L 46.6875 18.703125 
Q 43.0625 26.03125 39.671875 28.421875 
Q 36.28125 30.8125 30.421875 30.8125 
L 19.671875 30.8125 
L 19.671875 0 
L 9.8125 0 
L 9.8125 72.90625 
L 32.078125 72.90625 
Q 44.578125 72.90625 50.734375 67.671875 
Q 56.890625 62.453125 56.890625 51.90625 
Q 56.890625 45.015625 53.6875 40.46875 
Q 50.484375 35.9375 44.390625 34.1875 
z
M 19.671875 64.796875 
L 19.671875 38.921875 
L 32.078125 38.921875 
Q 39.203125 38.921875 42.84375 42.21875 
Q 46.484375 45.515625 46.484375 51.90625 
Q 46.484375 58.296875 42.84375 61.546875 
Q 39.203125 64.796875 32.078125 64.796875 
z
" id="DejaVuSans-82"/>
     </defs>
     <use xlink:href="#DejaVuSans-82"/>
     <use x="64.982422" xlink:href="#DejaVuSans-101"/>
     <use x="126.505859" xlink:href="#DejaVuSans-108"/>
     <use x="154.289062" xlink:href="#DejaVuSans-105"/>
     <use x="182.072266" xlink:href="#DejaVuSans-103"/>
     <use x="245.548828" xlink:href="#DejaVuSans-105"/>
     <use x="273.332031" xlink:href="#DejaVuSans-111"/>
     <use x="334.513672" xlink:href="#DejaVuSans-110"/>
    </g>
   </g>
   <g id="text_10">
    <!-- Travel -->
    <g transform="translate(316.44 173.59488)scale(0.08 -0.08)">
     <use xlink:href="#DejaVuSans-84"/>
     <use x="46.333984" xlink:href="#DejaVuSans-114"/>
     <use x="87.447266" xlink:href="#DejaVuSans-97"/>
     <use x="148.726562" xlink:href="#DejaVuSans-118"/>
     <use x="207.90625" xlink:href="#DejaVuSans-101"/>
     <use x="269.429688" xlink:href="#DejaVuSans-108"/>
    </g>
   </g>
   <g id="text_11">
    <!-- Food and Drink -->
    <g transform="translate(316.44 164.26368)scale(0.08 -0.08)">
     <defs>
      <path d="M 45.40625 46.390625 
L 45.40625 75.984375 
L 54.390625 75.984375 
L 54.390625 0 
L 45.40625 0 
L 45.40625 8.203125 
Q 42.578125 3.328125 38.25 0.953125 
Q 33.9375 -1.421875 27.875 -1.421875 
Q 17.96875 -1.421875 11.734375 6.484375 
Q 5.515625 14.40625 5.515625 27.296875 
Q 5.515625 40.1875 11.734375 48.09375 
Q 17.96875 56 27.875 56 
Q 33.9375 56 38.25 53.625 
Q 42.578125 51.265625 45.40625 46.390625 
z
M 14.796875 27.296875 
Q 14.796875 17.390625 18.875 11.75 
Q 22.953125 6.109375 30.078125 6.109375 
Q 37.203125 6.109375 41.296875 11.75 
Q 45.40625 17.390625 45.40625 27.296875 
Q 45.40625 37.203125 41.296875 42.84375 
Q 37.203125 48.484375 30.078125 48.484375 
Q 22.953125 48.484375 18.875 42.84375 
Q 14.796875 37.203125 14.796875 27.296875 
z
" id="DejaVuSans-100"/>
      <path d="M 19.671875 64.796875 
L 19.671875 8.109375 
L 31.59375 8.109375 
Q 46.6875 8.109375 53.6875 14.9375 
Q 60.6875 21.78125 60.6875 36.53125 
Q 60.6875 51.171875 53.6875 57.984375 
Q 46.6875 64.796875 31.59375 64.796875 
z
M 9.8125 72.90625 
L 30.078125 72.90625 
Q 51.265625 72.90625 61.171875 64.09375 
Q 71.09375 55.28125 71.09375 36.53125 
Q 71.09375 17.671875 61.125 8.828125 
Q 51.171875 0 30.078125 0 
L 9.8125 0 
z
" id="DejaVuSans-68"/>
      <path d="M 9.078125 75.984375 
L 18.109375 75.984375 
L 18.109375 31.109375 
L 44.921875 54.6875 
L 56.390625 54.6875 
L 27.390625 29.109375 
L 57.625 0 
L 45.90625 0 
L 18.109375 26.703125 
L 18.109375 0 
L 9.078125 0 
z
" id="DejaVuSans-107"/>
     </defs>
     <use xlink:href="#DejaVuSans-70"/>
     <use x="53.894531" xlink:href="#DejaVuSans-111"/>
     <use x="115.076172" xlink:href="#DejaVuSans-111"/>
     <use x="176.257812" xlink:href="#DejaVuSans-100"/>
     <use x="239.734375" xlink:href="#DejaVuSans-32"/>
     <use x="271.521484" xlink:href="#DejaVuSans-97"/>
     <use x="332.800781" xlink:href="#DejaVuSans-110"/>
     <use x="396.179688" xlink:href="#DejaVuSans-100"/>
     <use x="459.65625" xlink:href="#DejaVuSans-32"/>
     <use x="491.443359" xlink:href="#DejaVuSans-68"/>
     <use x="568.445312" xlink:href="#DejaVuSans-114"/>
     <use x="609.558594" xlink:href="#DejaVuSans-105"/>
     <use x="637.341797" xlink:href="#DejaVuSans-110"/>
     <use x="700.720703" xlink:href="#DejaVuSans-107"/>
    </g>
   </g>
   <g id="text_12">
    <!-- Web/Tech -->
    <g transform="translate(316.44 154.93248)scale(0.08 -0.08)">
     <defs>
      <path d="M 25.390625 72.90625 
L 33.6875 72.90625 
L 8.296875 -9.28125 
L 0 -9.28125 
z
" id="DejaVuSans-47"/>
     </defs>
     <use xlink:href="#DejaVuSans-87"/>
     <use x="93.001953" xlink:href="#DejaVuSans-101"/>
     <use x="154.525391" xlink:href="#DejaVuSans-98"/>
     <use x="218.001953" xlink:href="#DejaVuSans-47"/>
     <use x="251.693359" xlink:href="#DejaVuSans-84"/>
     <use x="295.777344" xlink:href="#DejaVuSans-101"/>
     <use x="357.300781" xlink:href="#DejaVuSans-99"/>
     <use x="412.28125" xlink:href="#DejaVuSans-104"/>
    </g>
   </g>
   <g id="text_13">
    <!-- Science -->
    <g transform="translate(316.44 145.60128)scale(0.08 -0.08)">
     <use xlink:href="#DejaVuSans-83"/>
     <use x="63.476562" xlink:href="#DejaVuSans-99"/>
     <use x="118.457031" xlink:href="#DejaVuSans-105"/>
     <use x="146.240234" xlink:href="#DejaVuSans-101"/>
     <use x="207.763672" xlink:href="#DejaVuSans-110"/>
     <use x="271.142578" xlink:href="#DejaVuSans-99"/>
     <use x="326.123047" xlink:href="#DejaVuSans-101"/>
    </g>
   </g>
   <g id="text_14">
    <!-- Philosophy -->
    <g transform="translate(316.44 136.27008)scale(0.08 -0.08)">
     <defs>
      <path d="M 19.671875 64.796875 
L 19.671875 37.40625 
L 32.078125 37.40625 
Q 38.96875 37.40625 42.71875 40.96875 
Q 46.484375 44.53125 46.484375 51.125 
Q 46.484375 57.671875 42.71875 61.234375 
Q 38.96875 64.796875 32.078125 64.796875 
z
M 9.8125 72.90625 
L 32.078125 72.90625 
Q 44.34375 72.90625 50.609375 67.359375 
Q 56.890625 61.8125 56.890625 51.125 
Q 56.890625 40.328125 50.609375 34.8125 
Q 44.34375 29.296875 32.078125 29.296875 
L 19.671875 29.296875 
L 19.671875 0 
L 9.8125 0 
z
" id="DejaVuSans-80"/>
      <path d="M 32.171875 -5.078125 
Q 28.375 -14.84375 24.75 -17.8125 
Q 21.140625 -20.796875 15.09375 -20.796875 
L 7.90625 -20.796875 
L 7.90625 -13.28125 
L 13.1875 -13.28125 
Q 16.890625 -13.28125 18.9375 -11.515625 
Q 21 -9.765625 23.484375 -3.21875 
L 25.09375 0.875 
L 2.984375 54.6875 
L 12.5 54.6875 
L 29.59375 11.921875 
L 46.6875 54.6875 
L 56.203125 54.6875 
z
" id="DejaVuSans-121"/>
     </defs>
     <use xlink:href="#DejaVuSans-80"/>
     <use x="60.302734" xlink:href="#DejaVuSans-104"/>
     <use x="123.681641" xlink:href="#DejaVuSans-105"/>
     <use x="151.464844" xlink:href="#DejaVuSans-108"/>
     <use x="179.248047" xlink:href="#DejaVuSans-111"/>
     <use x="240.429688" xlink:href="#DejaVuSans-115"/>
     <use x="292.529297" xlink:href="#DejaVuSans-111"/>
     <use x="353.710938" xlink:href="#DejaVuSans-112"/>
     <use x="417.1875" xlink:href="#DejaVuSans-104"/>
     <use x="480.566406" xlink:href="#DejaVuSans-121"/>
    </g>
   </g>
   <g id="text_15">
    <!-- Books -->
    <g transform="translate(316.44 126.93888)scale(0.08 -0.08)">
     <defs>
      <path d="M 19.671875 34.8125 
L 19.671875 8.109375 
L 35.5 8.109375 
Q 43.453125 8.109375 47.28125 11.40625 
Q 51.125 14.703125 51.125 21.484375 
Q 51.125 28.328125 47.28125 31.5625 
Q 43.453125 34.8125 35.5 34.8125 
z
M 19.671875 64.796875 
L 19.671875 42.828125 
L 34.28125 42.828125 
Q 41.5 42.828125 45.03125 45.53125 
Q 48.578125 48.25 48.578125 53.8125 
Q 48.578125 59.328125 45.03125 62.0625 
Q 41.5 64.796875 34.28125 64.796875 
z
M 9.8125 72.90625 
L 35.015625 72.90625 
Q 46.296875 72.90625 52.390625 68.21875 
Q 58.5 63.53125 58.5 54.890625 
Q 58.5 48.1875 55.375 44.234375 
Q 52.25 40.28125 46.1875 39.3125 
Q 53.46875 37.75 57.5 32.78125 
Q 61.53125 27.828125 61.53125 20.40625 
Q 61.53125 10.640625 54.890625 5.3125 
Q 48.25 0 35.984375 0 
L 9.8125 0 
z
" id="DejaVuSans-66"/>
     </defs>
     <use xlink:href="#DejaVuSans-66"/>
     <use x="68.603516" xlink:href="#DejaVuSans-111"/>
     <use x="129.785156" xlink:href="#DejaVuSans-111"/>
     <use x="190.966797" xlink:href="#DejaVuSans-107"/>
     <use x="248.876953" xlink:href="#DejaVuSans-115"/>
    </g>
   </g>
   <g id="text_16">
    <!-- Medicine -->
    <g transform="translate(316.44 117.60768)scale(0.08 -0.08)">
     <use xlink:href="#DejaVuSans-77"/>
     <use x="86.279297" xlink:href="#DejaVuSans-101"/>
     <use x="147.802734" xlink:href="#DejaVuSans-100"/>
     <use x="211.279297" xlink:href="#DejaVuSans-105"/>
     <use x="239.0625" xlink:href="#DejaVuSans-99"/>
     <use x="294.042969" xlink:href="#DejaVuSans-105"/>
     <use x="321.826172" xlink:href="#DejaVuSans-110"/>
     <use x="385.205078" xlink:href="#DejaVuSans-101"/>
    </g>
   </g>
   <g id="text_17">
    <!-- Data Source -->
    <g transform="translate(316.44 108.27648)scale(0.08 -0.08)">
     <use xlink:href="#DejaVuSans-68"/>
     <use x="77.001953" xlink:href="#DejaVuSans-97"/>
     <use x="138.28125" xlink:href="#DejaVuSans-116"/>
     <use x="177.490234" xlink:href="#DejaVuSans-97"/>
     <use x="238.769531" xlink:href="#DejaVuSans-32"/>
     <use x="270.556641" xlink:href="#DejaVuSans-83"/>
     <use x="334.033203" xlink:href="#DejaVuSans-111"/>
     <use x="395.214844" xlink:href="#DejaVuSans-117"/>
     <use x="458.59375" xlink:href="#DejaVuSans-114"/>
     <use x="497.457031" xlink:href="#DejaVuSans-99"/>
     <use x="552.4375" xlink:href="#DejaVuSans-101"/>
    </g>
   </g>
   <g id="text_18">
    <!-- Education -->
    <g transform="translate(316.44 98.94528)scale(0.08 -0.08)">
     <defs>
      <path d="M 9.8125 72.90625 
L 55.90625 72.90625 
L 55.90625 64.59375 
L 19.671875 64.59375 
L 19.671875 43.015625 
L 54.390625 43.015625 
L 54.390625 34.71875 
L 19.671875 34.71875 
L 19.671875 8.296875 
L 56.78125 8.296875 
L 56.78125 0 
L 9.8125 0 
z
" id="DejaVuSans-69"/>
     </defs>
     <use xlink:href="#DejaVuSans-69"/>
     <use x="63.183594" xlink:href="#DejaVuSans-100"/>
     <use x="126.660156" xlink:href="#DejaVuSans-117"/>
     <use x="190.039062" xlink:href="#DejaVuSans-99"/>
     <use x="245.019531" xlink:href="#DejaVuSans-97"/>
     <use x="306.298828" xlink:href="#DejaVuSans-116"/>
     <use x="345.507812" xlink:href="#DejaVuSans-105"/>
     <use x="373.291016" xlink:href="#DejaVuSans-111"/>
     <use x="434.472656" xlink:href="#DejaVuSans-110"/>
    </g>
   </g>
   <g id="text_19">
    <!-- History -->
    <g transform="translate(316.44 89.61408)scale(0.08 -0.08)">
     <defs>
      <path d="M 9.8125 72.90625 
L 19.671875 72.90625 
L 19.671875 43.015625 
L 55.515625 43.015625 
L 55.515625 72.90625 
L 65.375 72.90625 
L 65.375 0 
L 55.515625 0 
L 55.515625 34.71875 
L 19.671875 34.71875 
L 19.671875 0 
L 9.8125 0 
z
" id="DejaVuSans-72"/>
     </defs>
     <use xlink:href="#DejaVuSans-72"/>
     <use x="75.195312" xlink:href="#DejaVuSans-105"/>
     <use x="102.978516" xlink:href="#DejaVuSans-115"/>
     <use x="155.078125" xlink:href="#DejaVuSans-116"/>
     <use x="194.287109" xlink:href="#DejaVuSans-111"/>
     <use x="255.46875" xlink:href="#DejaVuSans-114"/>
     <use x="296.582031" xlink:href="#DejaVuSans-121"/>
    </g>
   </g>
   <g id="text_20">
    <!-- Political Science -->
    <g transform="translate(316.44 80.28288)scale(0.08 -0.08)">
     <use xlink:href="#DejaVuSans-80"/>
     <use x="56.677734" xlink:href="#DejaVuSans-111"/>
     <use x="117.859375" xlink:href="#DejaVuSans-108"/>
     <use x="145.642578" xlink:href="#DejaVuSans-105"/>
     <use x="173.425781" xlink:href="#DejaVuSans-116"/>
     <use x="212.634766" xlink:href="#DejaVuSans-105"/>
     <use x="240.417969" xlink:href="#DejaVuSans-99"/>
     <use x="295.398438" xlink:href="#DejaVuSans-97"/>
     <use x="356.677734" xlink:href="#DejaVuSans-108"/>
     <use x="384.460938" xlink:href="#DejaVuSans-32"/>
     <use x="416.248047" xlink:href="#DejaVuSans-83"/>
     <use x="479.724609" xlink:href="#DejaVuSans-99"/>
     <use x="534.705078" xlink:href="#DejaVuSans-105"/>
     <use x="562.488281" xlink:href="#DejaVuSans-101"/>
     <use x="624.011719" xlink:href="#DejaVuSans-110"/>
     <use x="687.390625" xlink:href="#DejaVuSans-99"/>
     <use x="742.371094" xlink:href="#DejaVuSans-101"/>
    </g>
   </g>
   <g id="text_21">
    <!-- Law -->
    <g transform="translate(316.44 70.95168)scale(0.08 -0.08)">
     <defs>
      <path d="M 9.8125 72.90625 
L 19.671875 72.90625 
L 19.671875 8.296875 
L 55.171875 8.296875 
L 55.171875 0 
L 9.8125 0 
z
" id="DejaVuSans-76"/>
      <path d="M 4.203125 54.6875 
L 13.1875 54.6875 
L 24.421875 12.015625 
L 35.59375 54.6875 
L 46.1875 54.6875 
L 57.421875 12.015625 
L 68.609375 54.6875 
L 77.59375 54.6875 
L 63.28125 0 
L 52.6875 0 
L 40.921875 44.828125 
L 29.109375 0 
L 18.5 0 
z
" id="DejaVuSans-119"/>
     </defs>
     <use xlink:href="#DejaVuSans-76"/>
     <use x="55.712891" xlink:href="#DejaVuSans-97"/>
     <use x="116.992188" xlink:href="#DejaVuSans-119"/>
    </g>
   </g>
   <g id="text_22">
    <!-- Current Affairs -->
    <g transform="translate(316.44 61.62048)scale(0.08 -0.08)">
     <defs>
      <path d="M 64.40625 67.28125 
L 64.40625 56.890625 
Q 59.421875 61.53125 53.78125 63.8125 
Q 48.140625 66.109375 41.796875 66.109375 
Q 29.296875 66.109375 22.65625 58.46875 
Q 16.015625 50.828125 16.015625 36.375 
Q 16.015625 21.96875 22.65625 14.328125 
Q 29.296875 6.6875 41.796875 6.6875 
Q 48.140625 6.6875 53.78125 8.984375 
Q 59.421875 11.28125 64.40625 15.921875 
L 64.40625 5.609375 
Q 59.234375 2.09375 53.4375 0.328125 
Q 47.65625 -1.421875 41.21875 -1.421875 
Q 24.65625 -1.421875 15.125 8.703125 
Q 5.609375 18.84375 5.609375 36.375 
Q 5.609375 53.953125 15.125 64.078125 
Q 24.65625 74.21875 41.21875 74.21875 
Q 47.75 74.21875 53.53125 72.484375 
Q 59.328125 70.75 64.40625 67.28125 
z
" id="DejaVuSans-67"/>
      <path d="M 37.109375 75.984375 
L 37.109375 68.5 
L 28.515625 68.5 
Q 23.6875 68.5 21.796875 66.546875 
Q 19.921875 64.59375 19.921875 59.515625 
L 19.921875 54.6875 
L 34.71875 54.6875 
L 34.71875 47.703125 
L 19.921875 47.703125 
L 19.921875 0 
L 10.890625 0 
L 10.890625 47.703125 
L 2.296875 47.703125 
L 2.296875 54.6875 
L 10.890625 54.6875 
L 10.890625 58.5 
Q 10.890625 67.625 15.140625 71.796875 
Q 19.390625 75.984375 28.609375 75.984375 
z
" id="DejaVuSans-102"/>
     </defs>
     <use xlink:href="#DejaVuSans-67"/>
     <use x="69.824219" xlink:href="#DejaVuSans-117"/>
     <use x="133.203125" xlink:href="#DejaVuSans-114"/>
     <use x="172.566406" xlink:href="#DejaVuSans-114"/>
     <use x="211.429688" xlink:href="#DejaVuSans-101"/>
     <use x="272.953125" xlink:href="#DejaVuSans-110"/>
     <use x="336.332031" xlink:href="#DejaVuSans-116"/>
     <use x="375.541016" xlink:href="#DejaVuSans-32"/>
     <use x="407.328125" xlink:href="#DejaVuSans-65"/>
     <use x="472.111328" xlink:href="#DejaVuSans-102"/>
     <use x="507.316406" xlink:href="#DejaVuSans-102"/>
     <use x="542.521484" xlink:href="#DejaVuSans-97"/>
     <use x="603.800781" xlink:href="#DejaVuSans-105"/>
     <use x="631.583984" xlink:href="#DejaVuSans-114"/>
     <use x="672.697266" xlink:href="#DejaVuSans-115"/>
    </g>
   </g>
   <g id="text_23">
    <!-- Economics -->
    <g transform="translate(316.44 52.28928)scale(0.08 -0.08)">
     <use xlink:href="#DejaVuSans-69"/>
     <use x="63.183594" xlink:href="#DejaVuSans-99"/>
     <use x="118.164062" xlink:href="#DejaVuSans-111"/>
     <use x="179.345703" xlink:href="#DejaVuSans-110"/>
     <use x="242.724609" xlink:href="#DejaVuSans-111"/>
     <use x="303.90625" xlink:href="#DejaVuSans-109"/>
     <use x="401.318359" xlink:href="#DejaVuSans-105"/>
     <use x="429.101562" xlink:href="#DejaVuSans-99"/>
     <use x="484.082031" xlink:href="#DejaVuSans-115"/>
    </g>
   </g>
   <g id="text_24">
    <!-- W -->
    <g transform="translate(119.124 257.57568)scale(0.08 -0.08)">
     <use xlink:href="#DejaVuSans-87"/>
    </g>
   </g>
   <g id="text_25">
    <!-- Tr -->
    <g transform="translate(109.728 248.24448)scale(0.08 -0.08)">
     <use xlink:href="#DejaVuSans-84"/>
     <use x="46.333984" xlink:href="#DejaVuSans-114"/>
    </g>
   </g>
   <g id="text_26">
    <!-- Te -->
    <g transform="translate(109.728 238.91328)scale(0.08 -0.08)">
     <use xlink:href="#DejaVuSans-84"/>
     <use x="44.083984" xlink:href="#DejaVuSans-101"/>
    </g>
   </g>
   <g id="text_27">
    <!-- G -->
    <g transform="translate(119.124 229.58208)scale(0.08 -0.08)">
     <use xlink:href="#DejaVuSans-71"/>
    </g>
   </g>
   <g id="text_28">
    <!-- Sp -->
    <g transform="translate(109.728 220.25088)scale(0.08 -0.08)">
     <use xlink:href="#DejaVuSans-83"/>
     <use x="63.476562" xlink:href="#DejaVuSans-112"/>
    </g>
   </g>
   <g id="text_29">
    <!-- M -->
    <g transform="translate(119.124 210.91968)scale(0.08 -0.08)">
     <use xlink:href="#DejaVuSans-77"/>
    </g>
   </g>
   <g id="text_30">
    <!-- F -->
    <g transform="translate(119.124 201.58848)scale(0.08 -0.08)">
     <use xlink:href="#DejaVuSans-70"/>
    </g>
   </g>
   <g id="text_31">
    <!-- R -->
    <g transform="translate(119.124 192.25728)scale(0.08 -0.08)">
     <use xlink:href="#DejaVuSans-82"/>
    </g>
   </g>
   <g id="text_32">
    <!-- Tr -->
    <g transform="translate(109.728 182.92608)scale(0.08 -0.08)">
     <use xlink:href="#DejaVuSans-84"/>
     <use x="46.333984" xlink:href="#DejaVuSans-114"/>
    </g>
   </g>
   <g id="text_33">
    <!-- TA -->
    <g transform="translate(109.728 173.59488)scale(0.08 -0.08)">
     <use xlink:href="#DejaVuSans-84"/>
     <use x="53.333984" xlink:href="#DejaVuSans-65"/>
    </g>
   </g>
   <g id="text_34">
    <!-- F&amp;D -->
    <g transform="translate(100.332 164.26368)scale(0.08 -0.08)">
     <defs>
      <path d="M 24.3125 39.203125 
Q 19.875 35.25 17.796875 31.3125 
Q 15.71875 27.390625 15.71875 23.09375 
Q 15.71875 15.96875 20.890625 11.234375 
Q 26.078125 6.5 33.890625 6.5 
Q 38.53125 6.5 42.578125 8.03125 
Q 46.625 9.578125 50.203125 12.703125 
z
M 31.203125 44.671875 
L 56 19.28125 
Q 58.890625 23.640625 60.5 28.59375 
Q 62.109375 33.546875 62.40625 39.109375 
L 71.484375 39.109375 
Q 70.90625 32.671875 68.359375 26.359375 
Q 65.828125 20.0625 61.28125 13.921875 
L 74.90625 0 
L 62.59375 0 
L 55.609375 7.171875 
Q 50.53125 2.828125 44.96875 0.703125 
Q 39.40625 -1.421875 33.015625 -1.421875 
Q 21.234375 -1.421875 13.765625 5.296875 
Q 6.296875 12.015625 6.296875 22.515625 
Q 6.296875 28.765625 9.5625 34.25 
Q 12.84375 39.75 19.390625 44.578125 
Q 17.046875 47.65625 15.8125 50.703125 
Q 14.59375 53.765625 14.59375 56.6875 
Q 14.59375 64.59375 20.015625 69.40625 
Q 25.4375 74.21875 34.421875 74.21875 
Q 38.484375 74.21875 42.5 73.34375 
Q 46.53125 72.46875 50.6875 70.703125 
L 50.6875 61.8125 
Q 46.4375 64.109375 42.578125 65.296875 
Q 38.71875 66.5 35.40625 66.5 
Q 30.28125 66.5 27.078125 63.78125 
Q 23.875 61.078125 23.875 56.78125 
Q 23.875 54.296875 25.3125 51.78125 
Q 26.765625 49.265625 31.203125 44.671875 
z
" id="DejaVuSans-38"/>
     </defs>
     <use xlink:href="#DejaVuSans-70"/>
     <use x="57.519531" xlink:href="#DejaVuSans-38"/>
     <use x="135.498047" xlink:href="#DejaVuSans-68"/>
    </g>
   </g>
   <g id="text_35">
    <!-- P -->
    <g transform="translate(119.124 154.93248)scale(0.08 -0.08)">
     <use xlink:href="#DejaVuSans-80"/>
    </g>
   </g>
   <g id="text_36">
    <!-- M -->
    <g transform="translate(119.124 145.60128)scale(0.08 -0.08)">
     <use xlink:href="#DejaVuSans-77"/>
    </g>
   </g>
   <g id="text_37">
    <!-- Sc -->
    <g transform="translate(109.728 136.27008)scale(0.08 -0.08)">
     <use xlink:href="#DejaVuSans-83"/>
     <use x="63.476562" xlink:href="#DejaVuSans-99"/>
    </g>
   </g>
   <g id="text_38">
    <!-- DS -->
    <g transform="translate(109.728 126.93888)scale(0.08 -0.08)">
     <use xlink:href="#DejaVuSans-68"/>
     <use x="77.001953" xlink:href="#DejaVuSans-83"/>
    </g>
   </g>
   <g id="text_39">
    <!-- W/T -->
    <g transform="translate(100.332 117.60768)scale(0.08 -0.08)">
     <use xlink:href="#DejaVuSans-87"/>
     <use x="98.876953" xlink:href="#DejaVuSans-47"/>
     <use x="132.568359" xlink:href="#DejaVuSans-84"/>
    </g>
   </g>
   <g id="text_40">
    <!-- H -->
    <g transform="translate(119.124 108.27648)scale(0.08 -0.08)">
     <use xlink:href="#DejaVuSans-72"/>
    </g>
   </g>
   <g id="text_41">
    <!-- Ed -->
    <g transform="translate(109.728 98.94528)scale(0.08 -0.08)">
     <use xlink:href="#DejaVuSans-69"/>
     <use x="63.183594" xlink:href="#DejaVuSans-100"/>
    </g>
   </g>
   <g id="text_42">
    <!-- PS -->
    <g transform="translate(109.728 89.61408)scale(0.08 -0.08)">
     <use xlink:href="#DejaVuSans-80"/>
     <use x="60.302734" xlink:href="#DejaVuSans-83"/>
    </g>
   </g>
   <g id="text_43">
    <!-- L -->
    <g transform="translate(119.124 80.28288)scale(0.08 -0.08)">
     <use xlink:href="#DejaVuSans-76"/>
    </g>
   </g>
   <g id="text_44">
    <!-- B -->
    <g transform="translate(119.124 70.95168)scale(0.08 -0.08)">
     <use xlink:href="#DejaVuSans-66"/>
    </g>
   </g>
   <g id="text_45">
    <!-- CA -->
    <g transform="translate(109.728 61.62048)scale(0.08 -0.08)">
     <use xlink:href="#DejaVuSans-67"/>
     <use x="69.824219" xlink:href="#DejaVuSans-65"/>
    </g>
   </g>
   <g id="text_46">
    <!-- Ec -->
    <g transform="translate(109.728 52.28928)scale(0.08 -0.08)">
     <use xlink:href="#DejaVuSans-69"/>
     <use x="63.183594" xlink:href="#DejaVuSans-99"/>
    </g>
   </g>
   <g id="text_47">
    <!-- Bipartite Graph of Post Frequency vs Accumulated Comments -->
    <g transform="translate(98.931875 28.56)scale(0.08 -0.08)">
     <defs>
      <path d="M 14.796875 27.296875 
Q 14.796875 17.390625 18.875 11.75 
Q 22.953125 6.109375 30.078125 6.109375 
Q 37.203125 6.109375 41.296875 11.75 
Q 45.40625 17.390625 45.40625 27.296875 
Q 45.40625 37.203125 41.296875 42.84375 
Q 37.203125 48.484375 30.078125 48.484375 
Q 22.953125 48.484375 18.875 42.84375 
Q 14.796875 37.203125 14.796875 27.296875 
z
M 45.40625 8.203125 
Q 42.578125 3.328125 38.25 0.953125 
Q 33.9375 -1.421875 27.875 -1.421875 
Q 17.96875 -1.421875 11.734375 6.484375 
Q 5.515625 14.40625 5.515625 27.296875 
Q 5.515625 40.1875 11.734375 48.09375 
Q 17.96875 56 27.875 56 
Q 33.9375 56 38.25 53.625 
Q 42.578125 51.265625 45.40625 46.390625 
L 45.40625 54.6875 
L 54.390625 54.6875 
L 54.390625 -20.796875 
L 45.40625 -20.796875 
z
" id="DejaVuSans-113"/>
     </defs>
     <use xlink:href="#DejaVuSans-66"/>
     <use x="68.603516" xlink:href="#DejaVuSans-105"/>
     <use x="96.386719" xlink:href="#DejaVuSans-112"/>
     <use x="159.863281" xlink:href="#DejaVuSans-97"/>
     <use x="221.142578" xlink:href="#DejaVuSans-114"/>
     <use x="262.255859" xlink:href="#DejaVuSans-116"/>
     <use x="301.464844" xlink:href="#DejaVuSans-105"/>
     <use x="329.248047" xlink:href="#DejaVuSans-116"/>
     <use x="368.457031" xlink:href="#DejaVuSans-101"/>
     <use x="429.980469" xlink:href="#DejaVuSans-32"/>
     <use x="461.767578" xlink:href="#DejaVuSans-71"/>
     <use x="539.257812" xlink:href="#DejaVuSans-114"/>
     <use x="580.371094" xlink:href="#DejaVuSans-97"/>
     <use x="641.650391" xlink:href="#DejaVuSans-112"/>
     <use x="705.126953" xlink:href="#DejaVuSans-104"/>
     <use x="768.505859" xlink:href="#DejaVuSans-32"/>
     <use x="800.292969" xlink:href="#DejaVuSans-111"/>
     <use x="861.474609" xlink:href="#DejaVuSans-102"/>
     <use x="896.679688" xlink:href="#DejaVuSans-32"/>
     <use x="928.466797" xlink:href="#DejaVuSans-80"/>
     <use x="985.144531" xlink:href="#DejaVuSans-111"/>
     <use x="1046.326172" xlink:href="#DejaVuSans-115"/>
     <use x="1098.425781" xlink:href="#DejaVuSans-116"/>
     <use x="1137.634766" xlink:href="#DejaVuSans-32"/>
     <use x="1169.421875" xlink:href="#DejaVuSans-70"/>
     <use x="1219.691406" xlink:href="#DejaVuSans-114"/>
     <use x="1258.554688" xlink:href="#DejaVuSans-101"/>
     <use x="1320.078125" xlink:href="#DejaVuSans-113"/>
     <use x="1383.554688" xlink:href="#DejaVuSans-117"/>
     <use x="1446.933594" xlink:href="#DejaVuSans-101"/>
     <use x="1508.457031" xlink:href="#DejaVuSans-110"/>
     <use x="1571.835938" xlink:href="#DejaVuSans-99"/>
     <use x="1626.816406" xlink:href="#DejaVuSans-121"/>
     <use x="1685.996094" xlink:href="#DejaVuSans-32"/>
     <use x="1717.783203" xlink:href="#DejaVuSans-118"/>
     <use x="1776.962891" xlink:href="#DejaVuSans-115"/>
     <use x="1829.0625" xlink:href="#DejaVuSans-32"/>
     <use x="1860.849609" xlink:href="#DejaVuSans-65"/>
     <use x="1927.507812" xlink:href="#DejaVuSans-99"/>
     <use x="1982.488281" xlink:href="#DejaVuSans-99"/>
     <use x="2037.46875" xlink:href="#DejaVuSans-117"/>
     <use x="2100.847656" xlink:href="#DejaVuSans-109"/>
     <use x="2198.259766" xlink:href="#DejaVuSans-117"/>
     <use x="2261.638672" xlink:href="#DejaVuSans-108"/>
     <use x="2289.421875" xlink:href="#DejaVuSans-97"/>
     <use x="2350.701172" xlink:href="#DejaVuSans-116"/>
     <use x="2389.910156" xlink:href="#DejaVuSans-101"/>
     <use x="2451.433594" xlink:href="#DejaVuSans-100"/>
     <use x="2514.910156" xlink:href="#DejaVuSans-32"/>
     <use x="2546.697266" xlink:href="#DejaVuSans-67"/>
     <use x="2616.521484" xlink:href="#DejaVuSans-111"/>
     <use x="2677.703125" xlink:href="#DejaVuSans-109"/>
     <use x="2775.115234" xlink:href="#DejaVuSans-109"/>
     <use x="2872.527344" xlink:href="#DejaVuSans-101"/>
     <use x="2934.050781" xlink:href="#DejaVuSans-110"/>
     <use x="2997.429688" xlink:href="#DejaVuSans-116"/>
     <use x="3036.638672" xlink:href="#DejaVuSans-115"/>
    </g>
   </g>
  </g>
 </g>
 <defs>
  <clipPath id="pb0e75122cf">
   <rect height="233.28" width="375.84" x="34.56" y="34.56"/>
  </clipPath>
 </defs>
</svg>
